<svg xmlns="http://www.w3.org/2000/svg" version="1.1" baseProfile="full" width="3479" height="248">
  <g>
    <title>BGC0001247.1</title>
    <line x1="1496" y1="40" x2="1825" y2="40" stroke="#464646" stroke-width="3"/>
    <g>
      <title>AAT69682.1 [BGC0001247.1~L0+CDS1]</title>
      <polygon points="1496.3,60.0 1496.3,20.0 1785.85,20.0 1785.85,0.0 1825.85,40.0 1785.85,80.0 1785.85,60.0" stroke-width="2" class="exon" fill="#ffffff" stroke="#0a0a0a"/>
    </g>
    <g>
      <path stroke="#464646" stroke-width="3" d="M1825 40 L 1840 40"/>
      <path stroke="#464646" stroke-width="3" d="M1850 40 L 1865 40"/>
      <path stroke="#464646" stroke-width="3" d="M1835 50 L 1845 30"/>
      <path stroke="#464646" stroke-width="3" d="M1845 50 L 1855 30"/>
    </g>
    <line x1="1865" y1="40" x2="1996" y2="40" stroke="#464646" stroke-width="3"/>
    <g>
      <title>ABC79591.2 [BGC0001247.1~L1+CDS1]</title>
      <polygon points="1865.85,60.0 1865.85,20.0 1956.65,20.0 1956.65,0.0 1996.65,40.0 1956.65,80.0 1956.65,60.0" stroke-width="2" class="exon" fill="#ffffff" stroke="#0a0a0a"/>
    </g>
    <g>
      <path stroke="#464646" stroke-width="3" d="M1996 40 L 2011 40"/>
      <path stroke="#464646" stroke-width="3" d="M2021 40 L 2036 40"/>
      <path stroke="#464646" stroke-width="3" d="M2006 50 L 2016 30"/>
      <path stroke="#464646" stroke-width="3" d="M2016 50 L 2026 30"/>
    </g>
    <line x1="2036" y1="40" x2="2156" y2="40" stroke="#464646" stroke-width="3"/>
    <g>
      <title>ABK64180.1 [BGC0001247.1~L2+CDS1]</title>
      <polygon points="2063.85,60.0 2063.85,20.0 2077.8,20.0 2077.8,60.0" stroke-width="2" class="exon" fill="#ffffff" stroke="#0a0a0a"/>
      <polygon points="2080.45,60.0 2080.45,20.0 2095.8,20.0 2095.8,0.0 2135.8,40.0 2095.8,80.0 2095.8,60.0" stroke-width="2" class="exon" fill="#ffffff" stroke="#0a0a0a"/>
      <polygon points="2077.85,60.0 2077.85,20.0 2080.4,20.0 2080.4,60.0" stroke-width="2" class="intron" fill="#dddddd" stroke-dasharray="2,2" stroke="#919191"/>
    </g>
    <g>
      <path stroke="#464646" stroke-width="3" d="M2156 40 L 2171 40"/>
      <path stroke="#464646" stroke-width="3" d="M2181 40 L 2196 40"/>
      <path stroke="#464646" stroke-width="3" d="M2166 50 L 2176 30"/>
      <path stroke="#464646" stroke-width="3" d="M2176 50 L 2186 30"/>
    </g>
    <line x1="2196" y1="40" x2="2310" y2="40" stroke="#464646" stroke-width="3"/>
    <g>
      <title>ABK64181.1 [BGC0001247.1~L3+CDS1]</title>
      <polygon points="2285.5,60.0 2285.5,20.0 2266.05,20.0 2266.05,60.0" stroke-width="2" class="exon" fill="#ffffff" stroke="#0a0a0a"/>
      <polygon points="2263.65,60.0 2263.65,20.0 2240.7,20.0 2240.7,0.0 2235.35,5.35 2235.35,74.65 2240.7,80.0 2240.7,60.0" stroke-width="2" class="exon" fill="#ffffff" stroke="#0a0a0a"/>
      <polygon points="2232.5,71.8 2232.5,8.2 2210.55,30.15 2210.55,49.85" stroke-width="2" class="exon" fill="#ffffff" stroke="#0a0a0a"/>
      <polygon points="2207.95,47.25 2207.95,32.75 2200.7,40.0" stroke-width="2" class="exon" fill="#ffffff" stroke="#0a0a0a"/>
      <polygon points="2266.0,60.0 2266.0,20.0 2263.7,20.0 2263.7,60.0" stroke-width="2" class="intron" fill="#dddddd" stroke-dasharray="2,2" stroke="#919191"/>
      <polygon points="2235.3,74.6 2235.3,5.4 2232.55,8.15 2232.55,71.85" stroke-width="2" class="intron" fill="#dddddd" stroke-dasharray="2,2" stroke="#919191"/>
      <polygon points="2210.5,49.8 2210.5,30.2 2208.0,32.7 2208.0,47.3" stroke-width="2" class="intron" fill="#dddddd" stroke-dasharray="2,2" stroke="#919191"/>
    </g>
    <g>
      <path stroke="#464646" stroke-width="3" d="M2310 40 L 2325 40"/>
      <path stroke="#464646" stroke-width="3" d="M2335 40 L 2350 40"/>
      <path stroke="#464646" stroke-width="3" d="M2320 50 L 2330 30"/>
      <path stroke="#464646" stroke-width="3" d="M2330 50 L 2340 30"/>
    </g>
    <line x1="2350" y1="40" x2="2470" y2="40" stroke="#464646" stroke-width="3"/>
    <g>
      <title>ABK64182.1 [BGC0001247.1~L4+CDS1]</title>
      <polygon points="2384.7,60.0 2384.7,20.0 2413.7,20.0 2413.7,0.0 2453.7,40.0 2413.7,80.0 2413.7,60.0" stroke-width="2" class="exon" fill="#ffffff" stroke="#0a0a0a"/>
    </g>
    <g>
      <path stroke="#464646" stroke-width="3" d="M2470 40 L 2485 40"/>
      <path stroke="#464646" stroke-width="3" d="M2495 40 L 2510 40"/>
      <path stroke="#464646" stroke-width="3" d="M2480 50 L 2490 30"/>
      <path stroke="#464646" stroke-width="3" d="M2490 50 L 2500 30"/>
    </g>
    <line x1="2510" y1="40" x2="2597" y2="40" stroke="#464646" stroke-width="3"/>
    <g>
      <title>ABK64183.1 [BGC0001247.1~L5+CDS1]</title>
      <polygon points="2572.6,60.0 2572.6,20.0 2558.9,20.0 2558.9,0.0 2518.9,40.0 2558.9,80.0 2558.9,60.0" stroke-width="2" class="exon" fill="#ffffff" stroke="#0a0a0a"/>
    </g>
    <g>
      <path stroke="#464646" stroke-width="3" d="M2597 40 L 2612 40"/>
      <path stroke="#464646" stroke-width="3" d="M2622 40 L 2637 40"/>
      <path stroke="#464646" stroke-width="3" d="M2607 50 L 2617 30"/>
      <path stroke="#464646" stroke-width="3" d="M2617 50 L 2627 30"/>
    </g>
    <line x1="2637" y1="40" x2="2784" y2="40" stroke="#464646" stroke-width="3"/>
    <g>
      <title>ABK64184.1 [BGC0001247.1~L6+CDS1]</title>
      <polygon points="2707.45,60.0 2707.45,20.0 2737.5,20.0 2737.5,0.0 2742.35,4.85 2742.35,75.15 2737.5,80.0 2737.5,60.0" stroke-width="2" class="exon" fill="#ffffff" stroke="#0a0a0a"/>
      <polygon points="2744.75,72.75 2744.75,7.25 2777.5,40.0" stroke-width="2" class="exon" fill="#ffffff" stroke="#0a0a0a"/>
      <polygon points="2742.4,75.1 2742.4,4.9 2744.7,7.2 2744.7,72.8" stroke-width="2" class="intron" fill="#dddddd" stroke-dasharray="2,2" stroke="#919191"/>
    </g>
    <g>
      <path stroke="#464646" stroke-width="3" d="M2784 40 L 2799 40"/>
      <path stroke="#464646" stroke-width="3" d="M2809 40 L 2824 40"/>
      <path stroke="#464646" stroke-width="3" d="M2794 50 L 2804 30"/>
      <path stroke="#464646" stroke-width="3" d="M2804 50 L 2814 30"/>
    </g>
    <line x1="2824" y1="40" x2="2932" y2="40" stroke="#464646" stroke-width="3"/>
    <g>
      <title>ABK64185.1 [BGC0001247.1~L7+CDS1]</title>
      <polygon points="2900.35,60.0 2900.35,20.0 2896.15,20.0 2896.15,60.0" stroke-width="2" class="exon" fill="#ffffff" stroke="#0a0a0a"/>
      <polygon points="2893.6,60.0 2893.6,20.0 2878.1,20.0 2878.1,0.0 2838.1,40.0 2878.1,80.0 2878.1,60.0" stroke-width="2" class="exon" fill="#ffffff" stroke="#0a0a0a"/>
      <polygon points="2896.1,60.0 2896.1,20.0 2893.65,20.0 2893.65,60.0" stroke-width="2" class="intron" fill="#dddddd" stroke-dasharray="2,2" stroke="#919191"/>
    </g>
    <g>
      <path stroke="#464646" stroke-width="3" d="M2932 40 L 2947 40"/>
      <path stroke="#464646" stroke-width="3" d="M2957 40 L 2972 40"/>
      <path stroke="#464646" stroke-width="3" d="M2942 50 L 2952 30"/>
      <path stroke="#464646" stroke-width="3" d="M2952 50 L 2962 30"/>
    </g>
    <line x1="2972" y1="40" x2="3062" y2="40" stroke="#464646" stroke-width="3"/>
    <g>
      <title>ABJ55988.1 [BGC0001247.1~L8+CDS1]</title>
      <polygon points="3029.65,60.0 3029.65,20.0 3027.3,20.0 3027.3,60.0" stroke-width="2" class="exon" fill="#ffffff" stroke="#0a0a0a"/>
      <polygon points="3024.7,60.0 3024.7,20.0 3020.85,20.0 3020.85,0.0 3004.5,16.35 3004.5,63.65 3020.85,80.0 3020.85,60.0" stroke-width="2" class="exon" fill="#ffffff" stroke="#0a0a0a"/>
      <polygon points="3001.75,60.9 3001.75,19.1 2992.6,28.25 2992.6,51.75" stroke-width="2" class="exon" fill="#ffffff" stroke="#0a0a0a"/>
      <polygon points="2989.95,49.1 2989.95,30.9 2980.85,40.0" stroke-width="2" class="exon" fill="#ffffff" stroke="#0a0a0a"/>
      <polygon points="3027.25,60.0 3027.25,20.0 3024.75,20.0 3024.75,60.0" stroke-width="2" class="intron" fill="#dddddd" stroke-dasharray="2,2" stroke="#919191"/>
      <polygon points="3004.45,63.6 3004.45,16.4 3001.8,19.05 3001.8,60.95" stroke-width="2" class="intron" fill="#dddddd" stroke-dasharray="2,2" stroke="#919191"/>
      <polygon points="2992.55,51.7 2992.55,28.3 2990.0,30.85 2990.0,49.15" stroke-width="2" class="intron" fill="#dddddd" stroke-dasharray="2,2" stroke="#919191"/>
    </g>
    <g>
      <path stroke="#464646" stroke-width="3" d="M3062 40 L 3077 40"/>
      <path stroke="#464646" stroke-width="3" d="M3087 40 L 3102 40"/>
      <path stroke="#464646" stroke-width="3" d="M3072 50 L 3082 30"/>
      <path stroke="#464646" stroke-width="3" d="M3082 50 L 3092 30"/>
    </g>
    <line x1="3102" y1="40" x2="3210" y2="40" stroke="#464646" stroke-width="3"/>
    <g>
      <title>ABJ55989.1 [BGC0001247.1~L9+CDS1]</title>
      <polygon points="3190.1,60.0 3190.1,20.0 3171.4,20.0 3171.4,60.0" stroke-width="2" class="exon" fill="#ffffff" stroke="#0a0a0a"/>
      <polygon points="3167.85,60.0 3167.85,20.0 3160.85,20.0 3160.85,0.0 3150.15,10.7 3150.15,69.3 3160.85,80.0 3160.85,60.0" stroke-width="2" class="exon" fill="#ffffff" stroke="#0a0a0a"/>
      <polygon points="3147.35,66.5 3147.35,13.5 3131.7,29.15 3131.7,50.85" stroke-width="2" class="exon" fill="#ffffff" stroke="#0a0a0a"/>
      <polygon points="3128.2,47.35 3128.2,32.65 3120.85,40.0" stroke-width="2" class="exon" fill="#ffffff" stroke="#0a0a0a"/>
      <polygon points="3171.35,60.0 3171.35,20.0 3167.9,20.0 3167.9,60.0" stroke-width="2" class="intron" fill="#dddddd" stroke-dasharray="2,2" stroke="#919191"/>
      <polygon points="3150.1,69.25 3150.1,10.75 3147.4,13.45 3147.4,66.55" stroke-width="2" class="intron" fill="#dddddd" stroke-dasharray="2,2" stroke="#919191"/>
      <polygon points="3131.65,50.8 3131.65,29.2 3128.25,32.6 3128.25,47.4" stroke-width="2" class="intron" fill="#dddddd" stroke-dasharray="2,2" stroke="#919191"/>
    </g>
    <g>
      <path stroke="#464646" stroke-width="3" d="M3210 40 L 3225 40"/>
      <path stroke="#464646" stroke-width="3" d="M3235 40 L 3250 40"/>
      <path stroke="#464646" stroke-width="3" d="M3220 50 L 3230 30"/>
      <path stroke="#464646" stroke-width="3" d="M3230 50 L 3240 30"/>
    </g>
    <line x1="3250" y1="40" x2="3338" y2="40" stroke="#464646" stroke-width="3"/>
    <g>
      <title>ABJ55990.1 [BGC0001247.1~L10+CDS1]</title>
      <polygon points="3282.75,60.0 3282.75,20.0 3292.7,20.0 3292.7,0.0 3332.7,40.0 3292.7,80.0 3292.7,60.0" stroke-width="2" class="exon" fill="#ffffff" stroke="#0a0a0a"/>
    </g>
    <g>
      <path stroke="#464646" stroke-width="3" d="M3338 40 L 3353 40"/>
      <path stroke="#464646" stroke-width="3" d="M3363 40 L 3378 40"/>
      <path stroke="#464646" stroke-width="3" d="M3348 50 L 3358 30"/>
      <path stroke="#464646" stroke-width="3" d="M3358 50 L 3368 30"/>
    </g>
    <line x1="3378" y1="40" x2="3477" y2="40" stroke="#464646" stroke-width="3"/>
    <g>
      <title>ABJ55991.1 [BGC0001247.1~L11+CDS1]</title>
      <polygon points="3449.85,60.0 3449.85,20.0 3441.85,20.0 3441.85,0.0 3401.85,40.0 3441.85,80.0 3441.85,60.0" stroke-width="2" class="exon" fill="#ffffff" stroke="#0a0a0a"/>
    </g>
  </g>
  <g>
    <title>BGC0001541.1</title>
    <line x1="0" y1="122" x2="2140" y2="122" stroke="#464646" stroke-width="3"/>
    <g>
      <title>PIB02402.1 [BGC0001541.1~L0+CDS1]</title>
      <polygon points="2138.65,142.0 2138.65,102.0 2124.95,102.0 2124.95,82.0 2084.95,122.0 2124.95,162.0 2124.95,142.0" stroke-width="2" class="exon" fill="#ffffff" stroke="#0a0a0a"/>
    </g>
    <g>
      <title>PIB02403.1 [BGC0001541.1~L0+CDS2]</title>
      <polygon points="2057.65,142.0 2057.65,102.0 2038.2,102.0 2038.2,142.0" stroke-width="2" class="exon" fill="#ffffff" stroke="#0a0a0a"/>
      <polygon points="2035.8,142.0 2035.8,102.0 2012.85,102.0 2012.85,82.0 2007.5,87.35 2007.5,156.65 2012.85,162.0 2012.85,142.0" stroke-width="2" class="exon" fill="#ffffff" stroke="#0a0a0a"/>
      <polygon points="2004.75,153.9 2004.75,90.1 1982.8,112.05 1982.8,131.95" stroke-width="2" class="exon" fill="#ffffff" stroke="#0a0a0a"/>
      <polygon points="1980.1,129.25 1980.1,114.75 1972.85,122.0" stroke-width="2" class="exon" fill="#ffffff" stroke="#0a0a0a"/>
      <polygon points="2038.15,142.0 2038.15,102.0 2035.85,102.0 2035.85,142.0" stroke-width="2" class="intron" fill="#dddddd" stroke-dasharray="2,2" stroke="#919191"/>
      <polygon points="2007.45,156.6 2007.45,87.4 2004.8,90.05 2004.8,153.95" stroke-width="2" class="intron" fill="#dddddd" stroke-dasharray="2,2" stroke="#919191"/>
      <polygon points="1982.75,131.9 1982.75,112.1 1980.15,114.7 1980.15,129.3" stroke-width="2" class="intron" fill="#dddddd" stroke-dasharray="2,2" stroke="#919191"/>
    </g>
    <g>
      <title>PIB02404.1 [BGC0001541.1~L0+CDS3]</title>
      <polygon points="1875.95,142.0 1875.95,102.0 1889.9,102.0 1889.9,142.0" stroke-width="2" class="exon" fill="#ffffff" stroke="#0a0a0a"/>
      <polygon points="1892.55,142.0 1892.55,102.0 1908.05,102.0 1908.05,82.0 1948.05,122.0 1908.05,162.0 1908.05,142.0" stroke-width="2" class="exon" fill="#ffffff" stroke="#0a0a0a"/>
      <polygon points="1889.95,142.0 1889.95,102.0 1892.5,102.0 1892.5,142.0" stroke-width="2" class="intron" fill="#dddddd" stroke-dasharray="2,2" stroke="#919191"/>
    </g>
    <g>
      <title>PIB02405.1 [BGC0001541.1~L0+CDS4]</title>
      <polygon points="1496.45,142.0 1496.45,102.0 1511.1,102.0 1511.1,142.0" stroke-width="2" class="exon" fill="#ffffff" stroke="#0a0a0a"/>
      <polygon points="1513.65,142.0 1513.65,102.0 1528.85,102.0 1528.85,142.0" stroke-width="2" class="exon" fill="#ffffff" stroke="#0a0a0a"/>
      <polygon points="1531.5,142.0 1531.5,102.0 1570.55,102.0 1570.55,142.0" stroke-width="2" class="exon" fill="#ffffff" stroke="#0a0a0a"/>
      <polygon points="1572.9,142.0 1572.9,102.0 1580.5,102.0 1580.5,142.0" stroke-width="2" class="exon" fill="#ffffff" stroke="#0a0a0a"/>
      <polygon points="1583.35,142.0 1583.35,102.0 1585.8,102.0 1585.8,142.0" stroke-width="2" class="exon" fill="#ffffff" stroke="#0a0a0a"/>
      <polygon points="1588.15,142.0 1588.15,102.0 1721.75,102.0 1721.75,142.0" stroke-width="2" class="exon" fill="#ffffff" stroke="#0a0a0a"/>
      <polygon points="1724.4,142.0 1724.4,102.0 1743.15,102.0 1743.15,142.0" stroke-width="2" class="exon" fill="#ffffff" stroke="#0a0a0a"/>
      <polygon points="1746.2,142.0 1746.2,102.0 1808.4,102.0 1808.4,82.0 1811.85,85.45 1811.85,158.55 1808.4,162.0 1808.4,142.0" stroke-width="2" class="exon" fill="#ffffff" stroke="#0a0a0a"/>
      <polygon points="1814.6,155.8 1814.6,88.2 1848.4,122.0" stroke-width="2" class="exon" fill="#ffffff" stroke="#0a0a0a"/>
      <polygon points="1511.15,142.0 1511.15,102.0 1513.6,102.0 1513.6,142.0" stroke-width="2" class="intron" fill="#dddddd" stroke-dasharray="2,2" stroke="#919191"/>
      <polygon points="1528.9,142.0 1528.9,102.0 1531.45,102.0 1531.45,142.0" stroke-width="2" class="intron" fill="#dddddd" stroke-dasharray="2,2" stroke="#919191"/>
      <polygon points="1570.6,142.0 1570.6,102.0 1572.85,102.0 1572.85,142.0" stroke-width="2" class="intron" fill="#dddddd" stroke-dasharray="2,2" stroke="#919191"/>
      <polygon points="1580.55,142.0 1580.55,102.0 1583.3,102.0 1583.3,142.0" stroke-width="2" class="intron" fill="#dddddd" stroke-dasharray="2,2" stroke="#919191"/>
      <polygon points="1585.85,142.0 1585.85,102.0 1588.1,102.0 1588.1,142.0" stroke-width="2" class="intron" fill="#dddddd" stroke-dasharray="2,2" stroke="#919191"/>
      <polygon points="1721.8,142.0 1721.8,102.0 1724.35,102.0 1724.35,142.0" stroke-width="2" class="intron" fill="#dddddd" stroke-dasharray="2,2" stroke="#919191"/>
      <polygon points="1743.2,142.0 1743.2,102.0 1746.15,102.0 1746.15,142.0" stroke-width="2" class="intron" fill="#dddddd" stroke-dasharray="2,2" stroke="#919191"/>
      <polygon points="1811.9,158.5 1811.9,85.5 1814.55,88.15 1814.55,155.85" stroke-width="2" class="intron" fill="#dddddd" stroke-dasharray="2,2" stroke="#919191"/>
    </g>
    <g>
      <title>PIB02398.1 [BGC0001541.1~L0+CDS5]</title>
      <polygon points="1454.0,142.0 1454.0,102.0 1441.7,102.0 1441.7,142.0" stroke-width="2" class="exon" fill="#ffffff" stroke="#0a0a0a"/>
      <polygon points="1439.3,142.0 1439.3,102.0 1426.7,102.0 1426.7,142.0" stroke-width="2" class="exon" fill="#ffffff" stroke="#0a0a0a"/>
      <polygon points="1423.2,142.0 1423.2,102.0 1357.3,102.0 1357.3,82.0 1317.3,122.0 1357.3,162.0 1357.3,142.0" stroke-width="2" class="exon" fill="#ffffff" stroke="#0a0a0a"/>
      <polygon points="1441.65,142.0 1441.65,102.0 1439.35,102.0 1439.35,142.0" stroke-width="2" class="intron" fill="#dddddd" stroke-dasharray="2,2" stroke="#919191"/>
      <polygon points="1426.65,142.0 1426.65,102.0 1423.25,102.0 1423.25,142.0" stroke-width="2" class="intron" fill="#dddddd" stroke-dasharray="2,2" stroke="#919191"/>
    </g>
    <g>
      <title>PIB02399.1 [BGC0001541.1~L0+CDS6]</title>
      <polygon points="1213.55,142.0 1213.55,102.0 1220.15,102.0 1220.15,142.0" stroke-width="2" class="exon" fill="#ffffff" stroke="#0a0a0a"/>
      <polygon points="1222.95,142.0 1222.95,102.0 1255.55,102.0 1255.55,82.0 1295.55,122.0 1255.55,162.0 1255.55,142.0" stroke-width="2" class="exon" fill="#ffffff" stroke="#0a0a0a"/>
      <polygon points="1220.2,142.0 1220.2,102.0 1222.9,102.0 1222.9,142.0" stroke-width="2" class="intron" fill="#dddddd" stroke-dasharray="2,2" stroke="#919191"/>
    </g>
    <g>
      <title>PIB02400.1 [BGC0001541.1~L0+CDS7]</title>
      <polygon points="1112.45,142.0 1112.45,102.0 1142.55,102.0 1142.55,142.0" stroke-width="2" class="exon" fill="#ffffff" stroke="#0a0a0a"/>
      <polygon points="1149.75,154.9 1149.75,89.1 1182.65,122.0" stroke-width="2" class="exon" fill="#ffffff" stroke="#0a0a0a"/>
      <polygon points="1142.6,142.0 1142.6,102.0 1142.65,102.0 1142.65,82.0 1149.7,89.05 1149.7,154.95 1142.65,162.0 1142.65,142.0" stroke-width="2" class="intron" fill="#dddddd" stroke-dasharray="2,2" stroke="#919191"/>
    </g>
    <g>
      <title>PIB02401.1 [BGC0001541.1~L0+CDS8]</title>
      <polygon points="1031.85,142.0 1031.85,102.0 1027.65,102.0 1027.65,142.0" stroke-width="2" class="exon" fill="#ffffff" stroke="#0a0a0a"/>
      <polygon points="1025.1,142.0 1025.1,102.0 1009.6,102.0 1009.6,82.0 969.6,122.0 1009.6,162.0 1009.6,142.0" stroke-width="2" class="exon" fill="#ffffff" stroke="#0a0a0a"/>
      <polygon points="1027.6,142.0 1027.6,102.0 1025.15,102.0 1025.15,142.0" stroke-width="2" class="intron" fill="#dddddd" stroke-dasharray="2,2" stroke="#919191"/>
    </g>
    <g>
      <title>PIB02406.1 [BGC0001541.1~L0+CDS9]</title>
      <polygon points="895.0,142.0 895.0,102.0 904.95,102.0 904.95,82.0 944.95,122.0 904.95,162.0 904.95,142.0" stroke-width="2" class="exon" fill="#ffffff" stroke="#0a0a0a"/>
    </g>
    <g>
      <title>PIB02407.1 [BGC0001541.1~L0+CDS10]</title>
      <polygon points="742.65,142.0 742.65,102.0 737.35,102.0 737.35,82.0 697.35,122.0 737.35,162.0 737.35,142.0" stroke-width="2" class="exon" fill="#ffffff" stroke="#0a0a0a"/>
    </g>
    <g>
      <title>PIB01160.1 [BGC0001541.1~L0+CDS11]</title>
      <polygon points="568.5,142.0 568.5,102.0 561.5,102.0 561.5,142.0" stroke-width="2" class="exon" fill="#ffffff" stroke="#0a0a0a"/>
      <polygon points="559.05,142.0 559.05,102.0 553.85,102.0 553.85,142.0" stroke-width="2" class="exon" fill="#ffffff" stroke="#0a0a0a"/>
      <polygon points="549.0,142.0 549.0,102.0 505.35,102.0 505.35,142.0" stroke-width="2" class="exon" fill="#ffffff" stroke="#0a0a0a"/>
      <polygon points="500.55,142.0 500.55,102.0 495.85,102.0 495.85,142.0" stroke-width="2" class="exon" fill="#ffffff" stroke="#0a0a0a"/>
      <polygon points="493.3,142.0 493.3,102.0 484.5,102.0 484.5,82.0 470.2,96.3 470.2,147.7 484.5,162.0 484.5,142.0" stroke-width="2" class="exon" fill="#ffffff" stroke="#0a0a0a"/>
      <polygon points="467.05,144.55 467.05,99.45 444.5,122.0" stroke-width="2" class="exon" fill="#ffffff" stroke="#0a0a0a"/>
      <polygon points="561.45,142.0 561.45,102.0 559.1,102.0 559.1,142.0" stroke-width="2" class="intron" fill="#dddddd" stroke-dasharray="2,2" stroke="#919191"/>
      <polygon points="553.8,142.0 553.8,102.0 549.05,102.0 549.05,142.0" stroke-width="2" class="intron" fill="#dddddd" stroke-dasharray="2,2" stroke="#919191"/>
      <polygon points="505.3,142.0 505.3,102.0 500.6,102.0 500.6,142.0" stroke-width="2" class="intron" fill="#dddddd" stroke-dasharray="2,2" stroke="#919191"/>
      <polygon points="495.8,142.0 495.8,102.0 493.35,102.0 493.35,142.0" stroke-width="2" class="intron" fill="#dddddd" stroke-dasharray="2,2" stroke="#919191"/>
      <polygon points="470.15,147.65 470.15,96.35 467.1,99.4 467.1,144.6" stroke-width="2" class="intron" fill="#dddddd" stroke-dasharray="2,2" stroke="#919191"/>
    </g>
    <g>
      <title>PIB01159.1 [BGC0001541.1~L0+CDS12]</title>
      <polygon points="415.1,142.0 415.1,102.0 380.55,102.0 380.55,142.0" stroke-width="2" class="exon" fill="#ffffff" stroke="#0a0a0a"/>
      <polygon points="378.0,142.0 378.0,102.0 358.0,102.0 358.0,142.0" stroke-width="2" class="exon" fill="#ffffff" stroke="#0a0a0a"/>
      <polygon points="355.5,161.1 355.5,82.9 345.0,93.4 345.0,150.6" stroke-width="2" class="exon" fill="#ffffff" stroke="#0a0a0a"/>
      <polygon points="342.55,148.15 342.55,95.85 316.4,122.0" stroke-width="2" class="exon" fill="#ffffff" stroke="#0a0a0a"/>
      <polygon points="380.5,142.0 380.5,102.0 378.05,102.0 378.05,142.0" stroke-width="2" class="intron" fill="#dddddd" stroke-dasharray="2,2" stroke="#919191"/>
      <polygon points="357.95,142.0 357.95,102.0 356.4,102.0 356.4,82.0 355.55,82.85 355.55,161.15 356.4,162.0 356.4,142.0" stroke-width="2" class="intron" fill="#dddddd" stroke-dasharray="2,2" stroke="#919191"/>
      <polygon points="344.95,150.55 344.95,93.45 342.6,95.8 342.6,148.2" stroke-width="2" class="intron" fill="#dddddd" stroke-dasharray="2,2" stroke="#919191"/>
    </g>
    <g>
      <title>PIB01162.1 [BGC0001541.1~L0+CDS13]</title>
      <polygon points="246.25,142.0 246.25,102.0 257.6,102.0 257.6,82.0 265.1,89.5 265.1,154.5 257.6,162.0 257.6,142.0" stroke-width="2" class="exon" fill="#ffffff" stroke="#0a0a0a"/>
      <polygon points="267.7,151.9 267.7,92.1 297.6,122.0" stroke-width="2" class="exon" fill="#ffffff" stroke="#0a0a0a"/>
      <polygon points="265.15,154.45 265.15,89.55 267.65,92.05 267.65,151.95" stroke-width="2" class="intron" fill="#dddddd" stroke-dasharray="2,2" stroke="#919191"/>
    </g>
    <g>
      <title>PIB01161.1 [BGC0001541.1~L0+CDS14]</title>
      <polygon points="192.25,162.0 192.25,82.0 200.35,94.27 200.35,149.73" stroke-width="2" class="exon" fill="#ffffff" stroke="#0a0a0a"/>
      <polygon points="203.45,145.03 203.45,98.97 213.45,114.12 213.45,129.88" stroke-width="2" class="exon" fill="#ffffff" stroke="#0a0a0a"/>
      <polygon points="216.8,124.8 216.8,119.2 218.65,122.0" stroke-width="2" class="exon" fill="#ffffff" stroke="#0a0a0a"/>
      <polygon points="200.4,149.65 200.4,94.35 203.4,98.89 203.4,145.11" stroke-width="2" class="intron" fill="#dddddd" stroke-dasharray="2,2" stroke="#919191"/>
      <polygon points="213.5,129.8 213.5,114.2 216.75,119.12 216.75,124.88" stroke-width="2" class="intron" fill="#dddddd" stroke-dasharray="2,2" stroke="#919191"/>
    </g>
    <g>
      <title>PIB01156.1 [BGC0001541.1~L0+CDS15]</title>
      <polygon points="110.6,142.0 110.6,102.0 129.5,102.0 129.5,82.0 156.55,109.05 156.55,134.95 129.5,162.0 129.5,142.0" stroke-width="2" class="exon" fill="#ffffff" stroke="#0a0a0a"/>
      <polygon points="159.2,132.3 159.2,111.7 169.5,122.0" stroke-width="2" class="exon" fill="#ffffff" stroke="#0a0a0a"/>
      <polygon points="156.6,134.9 156.6,109.1 159.15,111.65 159.15,132.35" stroke-width="2" class="intron" fill="#dddddd" stroke-dasharray="2,2" stroke="#919191"/>
    </g>
    <g>
      <title>PIB01155.1 [BGC0001541.1~L0+CDS16]</title>
      <polygon points="95.7,142.0 95.7,102.0 40.15,102.0 40.15,82.0 0.15,122.0 40.15,162.0 40.15,142.0" stroke-width="2" class="exon" fill="#ffffff" stroke="#0a0a0a"/>
    </g>
  </g>
  <g>
    <title>BGC0001542.1</title>
    <line x1="993" y1="204" x2="2133" y2="204" stroke="#464646" stroke-width="3"/>
    <g>
      <title>ARU80376.1 [BGC0001542.1~L0+CDS1]</title>
      <polygon points="1059.95,224.0 1059.95,184.0 1055.75,184.0 1055.75,224.0" stroke-width="2" class="exon" fill="#ffffff" stroke="#0a0a0a"/>
      <polygon points="1053.2,224.0 1053.2,184.0 1033.5,184.0 1033.5,164.0 1032.6,164.9 1032.6,243.1 1033.5,244.0 1033.5,224.0" stroke-width="2" class="exon" fill="#ffffff" stroke="#0a0a0a"/>
      <polygon points="1031.55,242.05 1031.55,165.95 1004.8,192.7 1004.8,215.3" stroke-width="2" class="exon" fill="#ffffff" stroke="#0a0a0a"/>
      <polygon points="1001.95,212.45 1001.95,195.55 993.5,204.0" stroke-width="2" class="exon" fill="#ffffff" stroke="#0a0a0a"/>
      <polygon points="1055.7,224.0 1055.7,184.0 1053.25,184.0 1053.25,224.0" stroke-width="2" class="intron" fill="#dddddd" stroke-dasharray="2,2" stroke="#919191"/>
      <polygon points="1032.55,243.05 1032.55,164.95 1031.6,165.9 1031.6,242.1" stroke-width="2" class="intron" fill="#dddddd" stroke-dasharray="2,2" stroke="#919191"/>
      <polygon points="1004.75,215.25 1004.75,192.75 1002.0,195.5 1002.0,212.5" stroke-width="2" class="intron" fill="#dddddd" stroke-dasharray="2,2" stroke="#919191"/>
    </g>
    <g>
      <title>ARU80378.1 [BGC0001542.1~L0+CDS2]</title>
      <polygon points="1220.75,224.0 1220.75,184.0 1250.05,184.0 1250.05,164.0 1290.05,204.0 1250.05,244.0 1250.05,224.0" stroke-width="2" class="exon" fill="#ffffff" stroke="#0a0a0a"/>
    </g>
    <g>
      <title>ARU80379.1 [BGC0001542.1~L0+CDS3]</title>
      <polygon points="1462.0,224.0 1462.0,184.0 1449.7,184.0 1449.7,224.0" stroke-width="2" class="exon" fill="#ffffff" stroke="#0a0a0a"/>
      <polygon points="1447.0,224.0 1447.0,184.0 1434.4,184.0 1434.4,224.0" stroke-width="2" class="exon" fill="#ffffff" stroke="#0a0a0a"/>
      <polygon points="1429.75,224.0 1429.75,184.0 1363.7,184.0 1363.7,164.0 1323.7,204.0 1363.7,244.0 1363.7,224.0" stroke-width="2" class="exon" fill="#ffffff" stroke="#0a0a0a"/>
      <polygon points="1449.65,224.0 1449.65,184.0 1447.05,184.0 1447.05,224.0" stroke-width="2" class="intron" fill="#dddddd" stroke-dasharray="2,2" stroke="#919191"/>
      <polygon points="1434.35,224.0 1434.35,184.0 1429.8,184.0 1429.8,224.0" stroke-width="2" class="intron" fill="#dddddd" stroke-dasharray="2,2" stroke="#919191"/>
    </g>
    <g>
      <title>ARU80380.1 [BGC0001542.1~L0+CDS4]</title>
      <polygon points="1496.3,224.0 1496.3,184.0 1510.95,184.0 1510.95,224.0" stroke-width="2" class="exon" fill="#ffffff" stroke="#0a0a0a"/>
      <polygon points="1513.5,224.0 1513.5,184.0 1528.7,184.0 1528.7,224.0" stroke-width="2" class="exon" fill="#ffffff" stroke="#0a0a0a"/>
      <polygon points="1531.8,224.0 1531.8,184.0 1570.7,184.0 1570.7,224.0" stroke-width="2" class="exon" fill="#ffffff" stroke="#0a0a0a"/>
      <polygon points="1573.05,224.0 1573.05,184.0 1580.65,184.0 1580.65,224.0" stroke-width="2" class="exon" fill="#ffffff" stroke="#0a0a0a"/>
      <polygon points="1583.3,224.0 1583.3,184.0 1585.75,184.0 1585.75,224.0" stroke-width="2" class="exon" fill="#ffffff" stroke="#0a0a0a"/>
      <polygon points="1588.1,224.0 1588.1,184.0 1597.3,184.0 1597.3,224.0" stroke-width="2" class="exon" fill="#ffffff" stroke="#0a0a0a"/>
      <polygon points="1600.05,224.0 1600.05,184.0 1713.8,184.0 1713.8,224.0" stroke-width="2" class="exon" fill="#ffffff" stroke="#0a0a0a"/>
      <polygon points="1716.25,224.0 1716.25,184.0 1726.9,184.0 1726.9,224.0" stroke-width="2" class="exon" fill="#ffffff" stroke="#0a0a0a"/>
      <polygon points="1729.6,224.0 1729.6,184.0 1809.4,184.0 1809.4,164.0 1812.8,167.4 1812.8,240.6 1809.4,244.0 1809.4,224.0" stroke-width="2" class="exon" fill="#ffffff" stroke="#0a0a0a"/>
      <polygon points="1815.6,237.8 1815.6,170.2 1849.4,204.0" stroke-width="2" class="exon" fill="#ffffff" stroke="#0a0a0a"/>
      <polygon points="1511.0,224.0 1511.0,184.0 1513.45,184.0 1513.45,224.0" stroke-width="2" class="intron" fill="#dddddd" stroke-dasharray="2,2" stroke="#919191"/>
      <polygon points="1528.75,224.0 1528.75,184.0 1531.75,184.0 1531.75,224.0" stroke-width="2" class="intron" fill="#dddddd" stroke-dasharray="2,2" stroke="#919191"/>
      <polygon points="1570.75,224.0 1570.75,184.0 1573.0,184.0 1573.0,224.0" stroke-width="2" class="intron" fill="#dddddd" stroke-dasharray="2,2" stroke="#919191"/>
      <polygon points="1580.7,224.0 1580.7,184.0 1583.25,184.0 1583.25,224.0" stroke-width="2" class="intron" fill="#dddddd" stroke-dasharray="2,2" stroke="#919191"/>
      <polygon points="1585.8,224.0 1585.8,184.0 1588.05,184.0 1588.05,224.0" stroke-width="2" class="intron" fill="#dddddd" stroke-dasharray="2,2" stroke="#919191"/>
      <polygon points="1597.35,224.0 1597.35,184.0 1600.0,184.0 1600.0,224.0" stroke-width="2" class="intron" fill="#dddddd" stroke-dasharray="2,2" stroke="#919191"/>
      <polygon points="1713.85,224.0 1713.85,184.0 1716.2,184.0 1716.2,224.0" stroke-width="2" class="intron" fill="#dddddd" stroke-dasharray="2,2" stroke="#919191"/>
      <polygon points="1726.95,224.0 1726.95,184.0 1729.55,184.0 1729.55,224.0" stroke-width="2" class="intron" fill="#dddddd" stroke-dasharray="2,2" stroke="#919191"/>
      <polygon points="1812.85,240.55 1812.85,167.45 1815.55,170.15 1815.55,237.85" stroke-width="2" class="intron" fill="#dddddd" stroke-dasharray="2,2" stroke="#919191"/>
    </g>
    <g>
      <title>ARU80381.1 [BGC0001542.1~L0+CDS5]</title>
      <polygon points="1874.55,224.0 1874.55,184.0 1902.5,184.0 1902.5,164.0 1942.5,204.0 1902.5,244.0 1902.5,224.0" stroke-width="2" class="exon" fill="#ffffff" stroke="#0a0a0a"/>
    </g>
    <g>
      <title>ARU80382.1 [BGC0001542.1~L0+CDS6]</title>
      <polygon points="2049.25,224.0 2049.25,184.0 2029.8,184.0 2029.8,224.0" stroke-width="2" class="exon" fill="#ffffff" stroke="#0a0a0a"/>
      <polygon points="2027.05,224.0 2027.05,184.0 2004.1,184.0 2004.1,164.0 1998.75,169.35 1998.75,238.65 2004.1,244.0 2004.1,224.0" stroke-width="2" class="exon" fill="#ffffff" stroke="#0a0a0a"/>
      <polygon points="1996.2,236.1 1996.2,171.9 1973.95,194.15 1973.95,213.85" stroke-width="2" class="exon" fill="#ffffff" stroke="#0a0a0a"/>
      <polygon points="1971.35,211.25 1971.35,196.75 1964.1,204.0" stroke-width="2" class="exon" fill="#ffffff" stroke="#0a0a0a"/>
      <polygon points="2029.75,224.0 2029.75,184.0 2027.1,184.0 2027.1,224.0" stroke-width="2" class="intron" fill="#dddddd" stroke-dasharray="2,2" stroke="#919191"/>
      <polygon points="1998.7,238.6 1998.7,169.4 1996.25,171.85 1996.25,236.15" stroke-width="2" class="intron" fill="#dddddd" stroke-dasharray="2,2" stroke="#919191"/>
      <polygon points="1973.9,213.8 1973.9,194.2 1971.4,196.7 1971.4,211.3" stroke-width="2" class="intron" fill="#dddddd" stroke-dasharray="2,2" stroke="#919191"/>
    </g>
    <g>
      <title>ARU80383.1 [BGC0001542.1~L0+CDS7]</title>
      <polygon points="2133.35,224.0 2133.35,184.0 2120.1,184.0 2120.1,164.0 2080.1,204.0 2120.1,244.0 2120.1,224.0" stroke-width="2" class="exon" fill="#ffffff" stroke="#0a0a0a"/>
    </g>
  </g>
</svg>
