<svg xmlns="http://www.w3.org/2000/svg" version="1.1" baseProfile="full" width="2142" height="248">
  <g>
    <title>BGC0001541.1</title>
    <line x1="0" y1="40" x2="2140" y2="40" stroke="#464646" stroke-width="3"/>
    <g>
      <title>PIB02402.1 [BGC0001541.1~L0+CDS1]</title>
      <polygon points="1.8,60.0 1.8,20.0 15.5,20.0 15.5,0.0 55.5,40.0 15.5,80.0 15.5,60.0" stroke-width="2" class="exon" fill="#ffffff" stroke="#0a0a0a"/>
    </g>
    <g>
      <title>PIB02403.1 [BGC0001541.1~L0+CDS2]</title>
      <polygon points="82.8,60.0 82.8,20.0 102.25,20.0 102.25,60.0" stroke-width="2" class="exon" fill="#ffffff" stroke="#0a0a0a"/>
      <polygon points="104.65,60.0 104.65,20.0 127.6,20.0 127.6,0.0 132.95,5.35 132.95,74.65 127.6,80.0 127.6,60.0" stroke-width="2" class="exon" fill="#ffffff" stroke="#0a0a0a"/>
      <polygon points="135.7,71.9 135.7,8.1 157.65,30.05 157.65,49.95" stroke-width="2" class="exon" fill="#ffffff" stroke="#0a0a0a"/>
      <polygon points="160.35,47.25 160.35,32.75 167.6,40.0" stroke-width="2" class="exon" fill="#ffffff" stroke="#0a0a0a"/>
      <polygon points="102.3,60.0 102.3,20.0 104.6,20.0 104.6,60.0" stroke-width="2" class="intron" fill="#dddddd" stroke-dasharray="2,2" stroke="#919191"/>
      <polygon points="133.0,74.6 133.0,5.4 135.65,8.05 135.65,71.95" stroke-width="2" class="intron" fill="#dddddd" stroke-dasharray="2,2" stroke="#919191"/>
      <polygon points="157.7,49.9 157.7,30.1 160.3,32.7 160.3,47.3" stroke-width="2" class="intron" fill="#dddddd" stroke-dasharray="2,2" stroke="#919191"/>
    </g>
    <g>
      <title>PIB02404.1 [BGC0001541.1~L0+CDS3]</title>
      <polygon points="264.5,60.0 264.5,20.0 250.55,20.0 250.55,60.0" stroke-width="2" class="exon" fill="#ffffff" stroke="#0a0a0a"/>
      <polygon points="247.9,60.0 247.9,20.0 232.4,20.0 232.4,0.0 192.4,40.0 232.4,80.0 232.4,60.0" stroke-width="2" class="exon" fill="#ffffff" stroke="#0a0a0a"/>
      <polygon points="250.5,60.0 250.5,20.0 247.95,20.0 247.95,60.0" stroke-width="2" class="intron" fill="#dddddd" stroke-dasharray="2,2" stroke="#919191"/>
    </g>
    <g>
      <title>PIB02405.1 [BGC0001541.1~L0+CDS4]</title>
      <polygon points="644.0,60.0 644.0,20.0 629.35,20.0 629.35,60.0" stroke-width="2" class="exon" fill="#ffffff" stroke="#0a0a0a"/>
      <polygon points="626.8,60.0 626.8,20.0 611.6,20.0 611.6,60.0" stroke-width="2" class="exon" fill="#ffffff" stroke="#0a0a0a"/>
      <polygon points="608.95,60.0 608.95,20.0 569.9,20.0 569.9,60.0" stroke-width="2" class="exon" fill="#ffffff" stroke="#0a0a0a"/>
      <polygon points="567.55,60.0 567.55,20.0 559.95,20.0 559.95,60.0" stroke-width="2" class="exon" fill="#ffffff" stroke="#0a0a0a"/>
      <polygon points="557.1,60.0 557.1,20.0 554.65,20.0 554.65,60.0" stroke-width="2" class="exon" fill="#ffffff" stroke="#0a0a0a"/>
      <polygon points="552.3,60.0 552.3,20.0 418.7,20.0 418.7,60.0" stroke-width="2" class="exon" fill="#ffffff" stroke="#0a0a0a"/>
      <polygon points="416.05,60.0 416.05,20.0 397.3,20.0 397.3,60.0" stroke-width="2" class="exon" fill="#ffffff" stroke="#0a0a0a"/>
      <polygon points="394.25,60.0 394.25,20.0 332.05,20.0 332.05,0.0 328.6,3.45 328.6,76.55 332.05,80.0 332.05,60.0" stroke-width="2" class="exon" fill="#ffffff" stroke="#0a0a0a"/>
      <polygon points="325.85,73.8 325.85,6.2 292.05,40.0" stroke-width="2" class="exon" fill="#ffffff" stroke="#0a0a0a"/>
      <polygon points="629.3,60.0 629.3,20.0 626.85,20.0 626.85,60.0" stroke-width="2" class="intron" fill="#dddddd" stroke-dasharray="2,2" stroke="#919191"/>
      <polygon points="611.55,60.0 611.55,20.0 609.0,20.0 609.0,60.0" stroke-width="2" class="intron" fill="#dddddd" stroke-dasharray="2,2" stroke="#919191"/>
      <polygon points="569.85,60.0 569.85,20.0 567.6,20.0 567.6,60.0" stroke-width="2" class="intron" fill="#dddddd" stroke-dasharray="2,2" stroke="#919191"/>
      <polygon points="559.9,60.0 559.9,20.0 557.15,20.0 557.15,60.0" stroke-width="2" class="intron" fill="#dddddd" stroke-dasharray="2,2" stroke="#919191"/>
      <polygon points="554.6,60.0 554.6,20.0 552.35,20.0 552.35,60.0" stroke-width="2" class="intron" fill="#dddddd" stroke-dasharray="2,2" stroke="#919191"/>
      <polygon points="418.65,60.0 418.65,20.0 416.1,20.0 416.1,60.0" stroke-width="2" class="intron" fill="#dddddd" stroke-dasharray="2,2" stroke="#919191"/>
      <polygon points="397.25,60.0 397.25,20.0 394.3,20.0 394.3,60.0" stroke-width="2" class="intron" fill="#dddddd" stroke-dasharray="2,2" stroke="#919191"/>
      <polygon points="328.55,76.5 328.55,3.5 325.9,6.15 325.9,73.85" stroke-width="2" class="intron" fill="#dddddd" stroke-dasharray="2,2" stroke="#919191"/>
    </g>
    <g>
      <title>PIB02398.1 [BGC0001541.1~L0+CDS5]</title>
      <polygon points="686.45,60.0 686.45,20.0 698.75,20.0 698.75,60.0" stroke-width="2" class="exon" fill="#ffffff" stroke="#0a0a0a"/>
      <polygon points="701.15,60.0 701.15,20.0 713.75,20.0 713.75,60.0" stroke-width="2" class="exon" fill="#ffffff" stroke="#0a0a0a"/>
      <polygon points="717.25,60.0 717.25,20.0 783.15,20.0 783.15,0.0 823.15,40.0 783.15,80.0 783.15,60.0" stroke-width="2" class="exon" fill="#ffffff" stroke="#0a0a0a"/>
      <polygon points="698.8,60.0 698.8,20.0 701.1,20.0 701.1,60.0" stroke-width="2" class="intron" fill="#dddddd" stroke-dasharray="2,2" stroke="#919191"/>
      <polygon points="713.8,60.0 713.8,20.0 717.2,20.0 717.2,60.0" stroke-width="2" class="intron" fill="#dddddd" stroke-dasharray="2,2" stroke="#919191"/>
    </g>
    <g>
      <title>PIB02399.1 [BGC0001541.1~L0+CDS6]</title>
      <polygon points="926.9,60.0 926.9,20.0 920.3,20.0 920.3,60.0" stroke-width="2" class="exon" fill="#ffffff" stroke="#0a0a0a"/>
      <polygon points="917.5,60.0 917.5,20.0 884.9,20.0 884.9,0.0 844.9,40.0 884.9,80.0 884.9,60.0" stroke-width="2" class="exon" fill="#ffffff" stroke="#0a0a0a"/>
      <polygon points="920.25,60.0 920.25,20.0 917.55,20.0 917.55,60.0" stroke-width="2" class="intron" fill="#dddddd" stroke-dasharray="2,2" stroke="#919191"/>
    </g>
    <g>
      <title>PIB02400.1 [BGC0001541.1~L0+CDS7]</title>
      <polygon points="1028.0,60.0 1028.0,20.0 997.9,20.0 997.9,60.0" stroke-width="2" class="exon" fill="#ffffff" stroke="#0a0a0a"/>
      <polygon points="990.7,72.9 990.7,7.1 957.8,40.0" stroke-width="2" class="exon" fill="#ffffff" stroke="#0a0a0a"/>
      <polygon points="997.85,60.0 997.85,20.0 997.8,20.0 997.8,0.0 990.75,7.05 990.75,72.95 997.8,80.0 997.8,60.0" stroke-width="2" class="intron" fill="#dddddd" stroke-dasharray="2,2" stroke="#919191"/>
    </g>
    <g>
      <title>PIB02401.1 [BGC0001541.1~L0+CDS8]</title>
      <polygon points="1108.6,60.0 1108.6,20.0 1112.8,20.0 1112.8,60.0" stroke-width="2" class="exon" fill="#ffffff" stroke="#0a0a0a"/>
      <polygon points="1115.35,60.0 1115.35,20.0 1130.85,20.0 1130.85,0.0 1170.85,40.0 1130.85,80.0 1130.85,60.0" stroke-width="2" class="exon" fill="#ffffff" stroke="#0a0a0a"/>
      <polygon points="1112.85,60.0 1112.85,20.0 1115.3,20.0 1115.3,60.0" stroke-width="2" class="intron" fill="#dddddd" stroke-dasharray="2,2" stroke="#919191"/>
    </g>
    <g>
      <title>PIB02406.1 [BGC0001541.1~L0+CDS9]</title>
      <polygon points="1245.45,60.0 1245.45,20.0 1235.5,20.0 1235.5,0.0 1195.5,40.0 1235.5,80.0 1235.5,60.0" stroke-width="2" class="exon" fill="#ffffff" stroke="#0a0a0a"/>
    </g>
    <g>
      <title>PIB02407.1 [BGC0001541.1~L0+CDS10]</title>
      <polygon points="1397.8,60.0 1397.8,20.0 1403.1,20.0 1403.1,0.0 1443.1,40.0 1403.1,80.0 1403.1,60.0" stroke-width="2" class="exon" fill="#ffffff" stroke="#0a0a0a"/>
    </g>
    <g>
      <title>PIB01160.1 [BGC0001541.1~L0+CDS11]</title>
      <polygon points="1571.95,60.0 1571.95,20.0 1578.95,20.0 1578.95,60.0" stroke-width="2" class="exon" fill="#ffffff" stroke="#0a0a0a"/>
      <polygon points="1581.4,60.0 1581.4,20.0 1586.6,20.0 1586.6,60.0" stroke-width="2" class="exon" fill="#ffffff" stroke="#0a0a0a"/>
      <polygon points="1591.45,60.0 1591.45,20.0 1635.1,20.0 1635.1,60.0" stroke-width="2" class="exon" fill="#ffffff" stroke="#0a0a0a"/>
      <polygon points="1639.9,60.0 1639.9,20.0 1644.6,20.0 1644.6,60.0" stroke-width="2" class="exon" fill="#ffffff" stroke="#0a0a0a"/>
      <polygon points="1647.15,60.0 1647.15,20.0 1655.95,20.0 1655.95,0.0 1670.25,14.3 1670.25,65.7 1655.95,80.0 1655.95,60.0" stroke-width="2" class="exon" fill="#ffffff" stroke="#0a0a0a"/>
      <polygon points="1673.4,62.55 1673.4,17.45 1695.95,40.0" stroke-width="2" class="exon" fill="#ffffff" stroke="#0a0a0a"/>
      <polygon points="1579.0,60.0 1579.0,20.0 1581.35,20.0 1581.35,60.0" stroke-width="2" class="intron" fill="#dddddd" stroke-dasharray="2,2" stroke="#919191"/>
      <polygon points="1586.65,60.0 1586.65,20.0 1591.4,20.0 1591.4,60.0" stroke-width="2" class="intron" fill="#dddddd" stroke-dasharray="2,2" stroke="#919191"/>
      <polygon points="1635.15,60.0 1635.15,20.0 1639.85,20.0 1639.85,60.0" stroke-width="2" class="intron" fill="#dddddd" stroke-dasharray="2,2" stroke="#919191"/>
      <polygon points="1644.65,60.0 1644.65,20.0 1647.1,20.0 1647.1,60.0" stroke-width="2" class="intron" fill="#dddddd" stroke-dasharray="2,2" stroke="#919191"/>
      <polygon points="1670.3,65.65 1670.3,14.35 1673.35,17.4 1673.35,62.6" stroke-width="2" class="intron" fill="#dddddd" stroke-dasharray="2,2" stroke="#919191"/>
    </g>
    <g>
      <title>PIB01159.1 [BGC0001541.1~L0+CDS12]</title>
      <polygon points="1725.35,60.0 1725.35,20.0 1759.9,20.0 1759.9,60.0" stroke-width="2" class="exon" fill="#ffffff" stroke="#0a0a0a"/>
      <polygon points="1762.45,60.0 1762.45,20.0 1782.45,20.0 1782.45,60.0" stroke-width="2" class="exon" fill="#ffffff" stroke="#0a0a0a"/>
      <polygon points="1784.95,79.1 1784.95,0.9 1795.45,11.4 1795.45,68.6" stroke-width="2" class="exon" fill="#ffffff" stroke="#0a0a0a"/>
      <polygon points="1797.9,66.15 1797.9,13.85 1824.05,40.0" stroke-width="2" class="exon" fill="#ffffff" stroke="#0a0a0a"/>
      <polygon points="1759.95,60.0 1759.95,20.0 1762.4,20.0 1762.4,60.0" stroke-width="2" class="intron" fill="#dddddd" stroke-dasharray="2,2" stroke="#919191"/>
      <polygon points="1782.5,60.0 1782.5,20.0 1784.05,20.0 1784.05,0.0 1784.9,0.85 1784.9,79.15 1784.05,80.0 1784.05,60.0" stroke-width="2" class="intron" fill="#dddddd" stroke-dasharray="2,2" stroke="#919191"/>
      <polygon points="1795.5,68.55 1795.5,11.45 1797.85,13.8 1797.85,66.2" stroke-width="2" class="intron" fill="#dddddd" stroke-dasharray="2,2" stroke="#919191"/>
    </g>
    <g>
      <title>PIB01162.1 [BGC0001541.1~L0+CDS13]</title>
      <polygon points="1894.2,60.0 1894.2,20.0 1882.85,20.0 1882.85,0.0 1875.35,7.5 1875.35,72.5 1882.85,80.0 1882.85,60.0" stroke-width="2" class="exon" fill="#ffffff" stroke="#0a0a0a"/>
      <polygon points="1872.75,69.9 1872.75,10.1 1842.85,40.0" stroke-width="2" class="exon" fill="#ffffff" stroke="#0a0a0a"/>
      <polygon points="1875.3,72.45 1875.3,7.55 1872.8,10.05 1872.8,69.95" stroke-width="2" class="intron" fill="#dddddd" stroke-dasharray="2,2" stroke="#919191"/>
    </g>
    <g>
      <title>PIB01161.1 [BGC0001541.1~L0+CDS14]</title>
      <polygon points="1948.2,80.0 1948.2,0.0 1940.1,12.27 1940.1,67.73" stroke-width="2" class="exon" fill="#ffffff" stroke="#0a0a0a"/>
      <polygon points="1937.0,63.03 1937.0,16.97 1927.0,32.12 1927.0,47.88" stroke-width="2" class="exon" fill="#ffffff" stroke="#0a0a0a"/>
      <polygon points="1923.65,42.8 1923.65,37.2 1921.8,40.0" stroke-width="2" class="exon" fill="#ffffff" stroke="#0a0a0a"/>
      <polygon points="1940.05,67.65 1940.05,12.35 1937.05,16.89 1937.05,63.11" stroke-width="2" class="intron" fill="#dddddd" stroke-dasharray="2,2" stroke="#919191"/>
      <polygon points="1926.95,47.8 1926.95,32.2 1923.7,37.12 1923.7,42.88" stroke-width="2" class="intron" fill="#dddddd" stroke-dasharray="2,2" stroke="#919191"/>
    </g>
    <g>
      <title>PIB01156.1 [BGC0001541.1~L0+CDS15]</title>
      <polygon points="2029.85,60.0 2029.85,20.0 2010.95,20.0 2010.95,0.0 1983.9,27.05 1983.9,52.95 2010.95,80.0 2010.95,60.0" stroke-width="2" class="exon" fill="#ffffff" stroke="#0a0a0a"/>
      <polygon points="1981.25,50.3 1981.25,29.7 1970.95,40.0" stroke-width="2" class="exon" fill="#ffffff" stroke="#0a0a0a"/>
      <polygon points="1983.85,52.9 1983.85,27.1 1981.3,29.65 1981.3,50.35" stroke-width="2" class="intron" fill="#dddddd" stroke-dasharray="2,2" stroke="#919191"/>
    </g>
    <g>
      <title>PIB01155.1 [BGC0001541.1~L0+CDS16]</title>
      <polygon points="2044.75,60.0 2044.75,20.0 2100.3,20.0 2100.3,0.0 2140.3,40.0 2100.3,80.0 2100.3,60.0" stroke-width="2" class="exon" fill="#ffffff" stroke="#0a0a0a"/>
    </g>
  </g>
  <g>
    <title>BGC0001542.1</title>
    <line x1="0" y1="122" x2="1139" y2="122" stroke="#464646" stroke-width="3"/>
    <g>
      <title>ARU80376.1 [BGC0001542.1~L0+CDS1]</title>
      <polygon points="66.45,142.0 66.45,102.0 62.25,102.0 62.25,142.0" stroke-width="2" class="exon" fill="#ffffff" stroke="#0a0a0a"/>
      <polygon points="59.7,142.0 59.7,102.0 40.0,102.0 40.0,82.0 39.1,82.9 39.1,161.1 40.0,162.0 40.0,142.0" stroke-width="2" class="exon" fill="#ffffff" stroke="#0a0a0a"/>
      <polygon points="38.05,160.05 38.05,83.95 11.3,110.7 11.3,133.3" stroke-width="2" class="exon" fill="#ffffff" stroke="#0a0a0a"/>
      <polygon points="8.45,130.45 8.45,113.55 0.0,122.0" stroke-width="2" class="exon" fill="#ffffff" stroke="#0a0a0a"/>
      <polygon points="62.2,142.0 62.2,102.0 59.75,102.0 59.75,142.0" stroke-width="2" class="intron" fill="#dddddd" stroke-dasharray="2,2" stroke="#919191"/>
      <polygon points="39.05,161.05 39.05,82.95 38.1,83.9 38.1,160.1" stroke-width="2" class="intron" fill="#dddddd" stroke-dasharray="2,2" stroke="#919191"/>
      <polygon points="11.25,133.25 11.25,110.75 8.5,113.5 8.5,130.5" stroke-width="2" class="intron" fill="#dddddd" stroke-dasharray="2,2" stroke="#919191"/>
    </g>
    <g>
      <title>ARU80378.1 [BGC0001542.1~L0+CDS2]</title>
      <polygon points="227.25,142.0 227.25,102.0 256.55,102.0 256.55,82.0 296.55,122.0 256.55,162.0 256.55,142.0" stroke-width="2" class="exon" fill="#ffffff" stroke="#0a0a0a"/>
    </g>
    <g>
      <title>ARU80379.1 [BGC0001542.1~L0+CDS3]</title>
      <polygon points="468.5,142.0 468.5,102.0 456.2,102.0 456.2,142.0" stroke-width="2" class="exon" fill="#ffffff" stroke="#0a0a0a"/>
      <polygon points="453.5,142.0 453.5,102.0 440.9,102.0 440.9,142.0" stroke-width="2" class="exon" fill="#ffffff" stroke="#0a0a0a"/>
      <polygon points="436.25,142.0 436.25,102.0 370.2,102.0 370.2,82.0 330.2,122.0 370.2,162.0 370.2,142.0" stroke-width="2" class="exon" fill="#ffffff" stroke="#0a0a0a"/>
      <polygon points="456.15,142.0 456.15,102.0 453.55,102.0 453.55,142.0" stroke-width="2" class="intron" fill="#dddddd" stroke-dasharray="2,2" stroke="#919191"/>
      <polygon points="440.85,142.0 440.85,102.0 436.3,102.0 436.3,142.0" stroke-width="2" class="intron" fill="#dddddd" stroke-dasharray="2,2" stroke="#919191"/>
    </g>
    <g>
      <title>ARU80380.1 [BGC0001542.1~L0+CDS4]</title>
      <polygon points="502.8,142.0 502.8,102.0 517.45,102.0 517.45,142.0" stroke-width="2" class="exon" fill="#ffffff" stroke="#0a0a0a"/>
      <polygon points="520.0,142.0 520.0,102.0 535.2,102.0 535.2,142.0" stroke-width="2" class="exon" fill="#ffffff" stroke="#0a0a0a"/>
      <polygon points="538.3,142.0 538.3,102.0 577.2,102.0 577.2,142.0" stroke-width="2" class="exon" fill="#ffffff" stroke="#0a0a0a"/>
      <polygon points="579.55,142.0 579.55,102.0 587.15,102.0 587.15,142.0" stroke-width="2" class="exon" fill="#ffffff" stroke="#0a0a0a"/>
      <polygon points="589.8,142.0 589.8,102.0 592.25,102.0 592.25,142.0" stroke-width="2" class="exon" fill="#ffffff" stroke="#0a0a0a"/>
      <polygon points="594.6,142.0 594.6,102.0 603.8,102.0 603.8,142.0" stroke-width="2" class="exon" fill="#ffffff" stroke="#0a0a0a"/>
      <polygon points="606.55,142.0 606.55,102.0 720.3,102.0 720.3,142.0" stroke-width="2" class="exon" fill="#ffffff" stroke="#0a0a0a"/>
      <polygon points="722.75,142.0 722.75,102.0 733.4,102.0 733.4,142.0" stroke-width="2" class="exon" fill="#ffffff" stroke="#0a0a0a"/>
      <polygon points="736.1,142.0 736.1,102.0 815.9,102.0 815.9,82.0 819.3,85.4 819.3,158.6 815.9,162.0 815.9,142.0" stroke-width="2" class="exon" fill="#ffffff" stroke="#0a0a0a"/>
      <polygon points="822.1,155.8 822.1,88.2 855.9,122.0" stroke-width="2" class="exon" fill="#ffffff" stroke="#0a0a0a"/>
      <polygon points="517.5,142.0 517.5,102.0 519.95,102.0 519.95,142.0" stroke-width="2" class="intron" fill="#dddddd" stroke-dasharray="2,2" stroke="#919191"/>
      <polygon points="535.25,142.0 535.25,102.0 538.25,102.0 538.25,142.0" stroke-width="2" class="intron" fill="#dddddd" stroke-dasharray="2,2" stroke="#919191"/>
      <polygon points="577.25,142.0 577.25,102.0 579.5,102.0 579.5,142.0" stroke-width="2" class="intron" fill="#dddddd" stroke-dasharray="2,2" stroke="#919191"/>
      <polygon points="587.2,142.0 587.2,102.0 589.75,102.0 589.75,142.0" stroke-width="2" class="intron" fill="#dddddd" stroke-dasharray="2,2" stroke="#919191"/>
      <polygon points="592.3,142.0 592.3,102.0 594.55,102.0 594.55,142.0" stroke-width="2" class="intron" fill="#dddddd" stroke-dasharray="2,2" stroke="#919191"/>
      <polygon points="603.85,142.0 603.85,102.0 606.5,102.0 606.5,142.0" stroke-width="2" class="intron" fill="#dddddd" stroke-dasharray="2,2" stroke="#919191"/>
      <polygon points="720.35,142.0 720.35,102.0 722.7,102.0 722.7,142.0" stroke-width="2" class="intron" fill="#dddddd" stroke-dasharray="2,2" stroke="#919191"/>
      <polygon points="733.45,142.0 733.45,102.0 736.05,102.0 736.05,142.0" stroke-width="2" class="intron" fill="#dddddd" stroke-dasharray="2,2" stroke="#919191"/>
      <polygon points="819.35,158.55 819.35,85.45 822.05,88.15 822.05,155.85" stroke-width="2" class="intron" fill="#dddddd" stroke-dasharray="2,2" stroke="#919191"/>
    </g>
    <g>
      <title>ARU80381.1 [BGC0001542.1~L0+CDS5]</title>
      <polygon points="881.05,142.0 881.05,102.0 909.0,102.0 909.0,82.0 949.0,122.0 909.0,162.0 909.0,142.0" stroke-width="2" class="exon" fill="#ffffff" stroke="#0a0a0a"/>
    </g>
    <g>
      <title>ARU80382.1 [BGC0001542.1~L0+CDS6]</title>
      <polygon points="1055.75,142.0 1055.75,102.0 1036.3,102.0 1036.3,142.0" stroke-width="2" class="exon" fill="#ffffff" stroke="#0a0a0a"/>
      <polygon points="1033.55,142.0 1033.55,102.0 1010.6,102.0 1010.6,82.0 1005.25,87.35 1005.25,156.65 1010.6,162.0 1010.6,142.0" stroke-width="2" class="exon" fill="#ffffff" stroke="#0a0a0a"/>
      <polygon points="1002.7,154.1 1002.7,89.9 980.45,112.15 980.45,131.85" stroke-width="2" class="exon" fill="#ffffff" stroke="#0a0a0a"/>
      <polygon points="977.85,129.25 977.85,114.75 970.6,122.0" stroke-width="2" class="exon" fill="#ffffff" stroke="#0a0a0a"/>
      <polygon points="1036.25,142.0 1036.25,102.0 1033.6,102.0 1033.6,142.0" stroke-width="2" class="intron" fill="#dddddd" stroke-dasharray="2,2" stroke="#919191"/>
      <polygon points="1005.2,156.6 1005.2,87.4 1002.75,89.85 1002.75,154.15" stroke-width="2" class="intron" fill="#dddddd" stroke-dasharray="2,2" stroke="#919191"/>
      <polygon points="980.4,131.8 980.4,112.2 977.9,114.7 977.9,129.3" stroke-width="2" class="intron" fill="#dddddd" stroke-dasharray="2,2" stroke="#919191"/>
    </g>
    <g>
      <title>ARU80383.1 [BGC0001542.1~L0+CDS7]</title>
      <polygon points="1139.85,142.0 1139.85,102.0 1126.6,102.0 1126.6,82.0 1086.6,122.0 1126.6,162.0 1126.6,142.0" stroke-width="2" class="exon" fill="#ffffff" stroke="#0a0a0a"/>
    </g>
  </g>
  <g>
    <title>BGC0001247.1</title>
    <line x1="0" y1="204" x2="329" y2="204" stroke="#464646" stroke-width="3"/>
    <g>
      <title>AAT69682.1 [BGC0001247.1~L0+CDS1]</title>
      <polygon points="0.0,224.0 0.0,184.0 289.55,184.0 289.55,164.0 329.55,204.0 289.55,244.0 289.55,224.0" stroke-width="2" class="exon" fill="#ffffff" stroke="#0a0a0a"/>
    </g>
    <g>
      <path stroke="#464646" stroke-width="3" d="M329 204 L 344 204"/>
      <path stroke="#464646" stroke-width="3" d="M354 204 L 369 204"/>
      <path stroke="#464646" stroke-width="3" d="M339 214 L 349 194"/>
      <path stroke="#464646" stroke-width="3" d="M349 214 L 359 194"/>
    </g>
    <line x1="369" y1="204" x2="500" y2="204" stroke="#464646" stroke-width="3"/>
    <g>
      <title>ABC79591.2 [BGC0001247.1~L1+CDS1]</title>
      <polygon points="369.55,224.0 369.55,184.0 460.35,184.0 460.35,164.0 500.35,204.0 460.35,244.0 460.35,224.0" stroke-width="2" class="exon" fill="#ffffff" stroke="#0a0a0a"/>
    </g>
    <g>
      <path stroke="#464646" stroke-width="3" d="M500 204 L 515 204"/>
      <path stroke="#464646" stroke-width="3" d="M525 204 L 540 204"/>
      <path stroke="#464646" stroke-width="3" d="M510 214 L 520 194"/>
      <path stroke="#464646" stroke-width="3" d="M520 214 L 530 194"/>
    </g>
    <line x1="540" y1="204" x2="660" y2="204" stroke="#464646" stroke-width="3"/>
    <g>
      <title>ABK64180.1 [BGC0001247.1~L2+CDS1]</title>
      <polygon points="567.55,224.0 567.55,184.0 581.5,184.0 581.5,224.0" stroke-width="2" class="exon" fill="#ffffff" stroke="#0a0a0a"/>
      <polygon points="584.15,224.0 584.15,184.0 599.5,184.0 599.5,164.0 639.5,204.0 599.5,244.0 599.5,224.0" stroke-width="2" class="exon" fill="#ffffff" stroke="#0a0a0a"/>
      <polygon points="581.55,224.0 581.55,184.0 584.1,184.0 584.1,224.0" stroke-width="2" class="intron" fill="#dddddd" stroke-dasharray="2,2" stroke="#919191"/>
    </g>
    <g>
      <path stroke="#464646" stroke-width="3" d="M660 204 L 675 204"/>
      <path stroke="#464646" stroke-width="3" d="M685 204 L 700 204"/>
      <path stroke="#464646" stroke-width="3" d="M670 214 L 680 194"/>
      <path stroke="#464646" stroke-width="3" d="M680 214 L 690 194"/>
    </g>
    <line x1="700" y1="204" x2="814" y2="204" stroke="#464646" stroke-width="3"/>
    <g>
      <title>ABK64181.1 [BGC0001247.1~L3+CDS1]</title>
      <polygon points="789.2,224.0 789.2,184.0 769.75,184.0 769.75,224.0" stroke-width="2" class="exon" fill="#ffffff" stroke="#0a0a0a"/>
      <polygon points="767.35,224.0 767.35,184.0 744.4,184.0 744.4,164.0 739.05,169.35 739.05,238.65 744.4,244.0 744.4,224.0" stroke-width="2" class="exon" fill="#ffffff" stroke="#0a0a0a"/>
      <polygon points="736.2,235.8 736.2,172.2 714.25,194.15 714.25,213.85" stroke-width="2" class="exon" fill="#ffffff" stroke="#0a0a0a"/>
      <polygon points="711.65,211.25 711.65,196.75 704.4,204.0" stroke-width="2" class="exon" fill="#ffffff" stroke="#0a0a0a"/>
      <polygon points="769.7,224.0 769.7,184.0 767.4,184.0 767.4,224.0" stroke-width="2" class="intron" fill="#dddddd" stroke-dasharray="2,2" stroke="#919191"/>
      <polygon points="739.0,238.6 739.0,169.4 736.25,172.15 736.25,235.85" stroke-width="2" class="intron" fill="#dddddd" stroke-dasharray="2,2" stroke="#919191"/>
      <polygon points="714.2,213.8 714.2,194.2 711.7,196.7 711.7,211.3" stroke-width="2" class="intron" fill="#dddddd" stroke-dasharray="2,2" stroke="#919191"/>
    </g>
    <g>
      <path stroke="#464646" stroke-width="3" d="M814 204 L 829 204"/>
      <path stroke="#464646" stroke-width="3" d="M839 204 L 854 204"/>
      <path stroke="#464646" stroke-width="3" d="M824 214 L 834 194"/>
      <path stroke="#464646" stroke-width="3" d="M834 214 L 844 194"/>
    </g>
    <line x1="854" y1="204" x2="974" y2="204" stroke="#464646" stroke-width="3"/>
    <g>
      <title>ABK64182.1 [BGC0001247.1~L4+CDS1]</title>
      <polygon points="888.4,224.0 888.4,184.0 917.4,184.0 917.4,164.0 957.4,204.0 917.4,244.0 917.4,224.0" stroke-width="2" class="exon" fill="#ffffff" stroke="#0a0a0a"/>
    </g>
    <g>
      <path stroke="#464646" stroke-width="3" d="M974 204 L 989 204"/>
      <path stroke="#464646" stroke-width="3" d="M999 204 L 1014 204"/>
      <path stroke="#464646" stroke-width="3" d="M984 214 L 994 194"/>
      <path stroke="#464646" stroke-width="3" d="M994 214 L 1004 194"/>
    </g>
    <line x1="1014" y1="204" x2="1101" y2="204" stroke="#464646" stroke-width="3"/>
    <g>
      <title>ABK64183.1 [BGC0001247.1~L5+CDS1]</title>
      <polygon points="1076.3,224.0 1076.3,184.0 1062.6,184.0 1062.6,164.0 1022.6,204.0 1062.6,244.0 1062.6,224.0" stroke-width="2" class="exon" fill="#ffffff" stroke="#0a0a0a"/>
    </g>
    <g>
      <path stroke="#464646" stroke-width="3" d="M1101 204 L 1116 204"/>
      <path stroke="#464646" stroke-width="3" d="M1126 204 L 1141 204"/>
      <path stroke="#464646" stroke-width="3" d="M1111 214 L 1121 194"/>
      <path stroke="#464646" stroke-width="3" d="M1121 214 L 1131 194"/>
    </g>
    <line x1="1141" y1="204" x2="1288" y2="204" stroke="#464646" stroke-width="3"/>
    <g>
      <title>ABK64184.1 [BGC0001247.1~L6+CDS1]</title>
      <polygon points="1211.15,224.0 1211.15,184.0 1241.2,184.0 1241.2,164.0 1246.05,168.85 1246.05,239.15 1241.2,244.0 1241.2,224.0" stroke-width="2" class="exon" fill="#ffffff" stroke="#0a0a0a"/>
      <polygon points="1248.45,236.75 1248.45,171.25 1281.2,204.0" stroke-width="2" class="exon" fill="#ffffff" stroke="#0a0a0a"/>
      <polygon points="1246.1,239.1 1246.1,168.9 1248.4,171.2 1248.4,236.8" stroke-width="2" class="intron" fill="#dddddd" stroke-dasharray="2,2" stroke="#919191"/>
    </g>
    <g>
      <path stroke="#464646" stroke-width="3" d="M1288 204 L 1303 204"/>
      <path stroke="#464646" stroke-width="3" d="M1313 204 L 1328 204"/>
      <path stroke="#464646" stroke-width="3" d="M1298 214 L 1308 194"/>
      <path stroke="#464646" stroke-width="3" d="M1308 214 L 1318 194"/>
    </g>
    <line x1="1328" y1="204" x2="1436" y2="204" stroke="#464646" stroke-width="3"/>
    <g>
      <title>ABK64185.1 [BGC0001247.1~L7+CDS1]</title>
      <polygon points="1404.05,224.0 1404.05,184.0 1399.85,184.0 1399.85,224.0" stroke-width="2" class="exon" fill="#ffffff" stroke="#0a0a0a"/>
      <polygon points="1397.3,224.0 1397.3,184.0 1381.8,184.0 1381.8,164.0 1341.8,204.0 1381.8,244.0 1381.8,224.0" stroke-width="2" class="exon" fill="#ffffff" stroke="#0a0a0a"/>
      <polygon points="1399.8,224.0 1399.8,184.0 1397.35,184.0 1397.35,224.0" stroke-width="2" class="intron" fill="#dddddd" stroke-dasharray="2,2" stroke="#919191"/>
    </g>
    <g>
      <path stroke="#464646" stroke-width="3" d="M1436 204 L 1451 204"/>
      <path stroke="#464646" stroke-width="3" d="M1461 204 L 1476 204"/>
      <path stroke="#464646" stroke-width="3" d="M1446 214 L 1456 194"/>
      <path stroke="#464646" stroke-width="3" d="M1456 214 L 1466 194"/>
    </g>
    <line x1="1476" y1="204" x2="1566" y2="204" stroke="#464646" stroke-width="3"/>
    <g>
      <title>ABJ55988.1 [BGC0001247.1~L8+CDS1]</title>
      <polygon points="1533.35,224.0 1533.35,184.0 1531.0,184.0 1531.0,224.0" stroke-width="2" class="exon" fill="#ffffff" stroke="#0a0a0a"/>
      <polygon points="1528.4,224.0 1528.4,184.0 1524.55,184.0 1524.55,164.0 1508.2,180.35 1508.2,227.65 1524.55,244.0 1524.55,224.0" stroke-width="2" class="exon" fill="#ffffff" stroke="#0a0a0a"/>
      <polygon points="1505.45,224.9 1505.45,183.1 1496.3,192.25 1496.3,215.75" stroke-width="2" class="exon" fill="#ffffff" stroke="#0a0a0a"/>
      <polygon points="1493.65,213.1 1493.65,194.9 1484.55,204.0" stroke-width="2" class="exon" fill="#ffffff" stroke="#0a0a0a"/>
      <polygon points="1530.95,224.0 1530.95,184.0 1528.45,184.0 1528.45,224.0" stroke-width="2" class="intron" fill="#dddddd" stroke-dasharray="2,2" stroke="#919191"/>
      <polygon points="1508.15,227.6 1508.15,180.4 1505.5,183.05 1505.5,224.95" stroke-width="2" class="intron" fill="#dddddd" stroke-dasharray="2,2" stroke="#919191"/>
      <polygon points="1496.25,215.7 1496.25,192.3 1493.7,194.85 1493.7,213.15" stroke-width="2" class="intron" fill="#dddddd" stroke-dasharray="2,2" stroke="#919191"/>
    </g>
    <g>
      <path stroke="#464646" stroke-width="3" d="M1566 204 L 1581 204"/>
      <path stroke="#464646" stroke-width="3" d="M1591 204 L 1606 204"/>
      <path stroke="#464646" stroke-width="3" d="M1576 214 L 1586 194"/>
      <path stroke="#464646" stroke-width="3" d="M1586 214 L 1596 194"/>
    </g>
    <line x1="1606" y1="204" x2="1714" y2="204" stroke="#464646" stroke-width="3"/>
    <g>
      <title>ABJ55989.1 [BGC0001247.1~L9+CDS1]</title>
      <polygon points="1693.8,224.0 1693.8,184.0 1675.1,184.0 1675.1,224.0" stroke-width="2" class="exon" fill="#ffffff" stroke="#0a0a0a"/>
      <polygon points="1671.55,224.0 1671.55,184.0 1664.55,184.0 1664.55,164.0 1653.85,174.7 1653.85,233.3 1664.55,244.0 1664.55,224.0" stroke-width="2" class="exon" fill="#ffffff" stroke="#0a0a0a"/>
      <polygon points="1651.05,230.5 1651.05,177.5 1635.4,193.15 1635.4,214.85" stroke-width="2" class="exon" fill="#ffffff" stroke="#0a0a0a"/>
      <polygon points="1631.9,211.35 1631.9,196.65 1624.55,204.0" stroke-width="2" class="exon" fill="#ffffff" stroke="#0a0a0a"/>
      <polygon points="1675.05,224.0 1675.05,184.0 1671.6,184.0 1671.6,224.0" stroke-width="2" class="intron" fill="#dddddd" stroke-dasharray="2,2" stroke="#919191"/>
      <polygon points="1653.8,233.25 1653.8,174.75 1651.1,177.45 1651.1,230.55" stroke-width="2" class="intron" fill="#dddddd" stroke-dasharray="2,2" stroke="#919191"/>
      <polygon points="1635.35,214.8 1635.35,193.2 1631.95,196.6 1631.95,211.4" stroke-width="2" class="intron" fill="#dddddd" stroke-dasharray="2,2" stroke="#919191"/>
    </g>
    <g>
      <path stroke="#464646" stroke-width="3" d="M1714 204 L 1729 204"/>
      <path stroke="#464646" stroke-width="3" d="M1739 204 L 1754 204"/>
      <path stroke="#464646" stroke-width="3" d="M1724 214 L 1734 194"/>
      <path stroke="#464646" stroke-width="3" d="M1734 214 L 1744 194"/>
    </g>
    <line x1="1754" y1="204" x2="1842" y2="204" stroke="#464646" stroke-width="3"/>
    <g>
      <title>ABJ55990.1 [BGC0001247.1~L10+CDS1]</title>
      <polygon points="1786.45,224.0 1786.45,184.0 1796.4,184.0 1796.4,164.0 1836.4,204.0 1796.4,244.0 1796.4,224.0" stroke-width="2" class="exon" fill="#ffffff" stroke="#0a0a0a"/>
    </g>
    <g>
      <path stroke="#464646" stroke-width="3" d="M1842 204 L 1857 204"/>
      <path stroke="#464646" stroke-width="3" d="M1867 204 L 1882 204"/>
      <path stroke="#464646" stroke-width="3" d="M1852 214 L 1862 194"/>
      <path stroke="#464646" stroke-width="3" d="M1862 214 L 1872 194"/>
    </g>
    <line x1="1882" y1="204" x2="1981" y2="204" stroke="#464646" stroke-width="3"/>
    <g>
      <title>ABJ55991.1 [BGC0001247.1~L11+CDS1]</title>
      <polygon points="1953.55,224.0 1953.55,184.0 1945.55,184.0 1945.55,164.0 1905.55,204.0 1945.55,244.0 1945.55,224.0" stroke-width="2" class="exon" fill="#ffffff" stroke="#0a0a0a"/>
    </g>
  </g>
</svg>
