<svg xmlns="http://www.w3.org/2000/svg" version="1.1" baseProfile="full" width="1276" height="248">
  <g>
    <title>BGC0000104.1</title>
    <line x1="0" y1="40" x2="1274" y2="40" stroke="#464646" stroke-width="3"/>
    <g>
      <title>ADY00128.1 [BGC0000104.1~L0+CDS1]
Terpene
UbiA prenyltransferase family</title>
      <polygon points="1217.6,60.0 1217.6,20.0 1222.9,20.0 1222.9,60.0" stroke-width="2" class="exon" fill="#d59d7c"/>
      <polygon points="1228.7,60.0 1228.7,20.0 1234.45,20.0 1234.45,0.0 1241.05,6.6 1241.05,73.4 1234.45,80.0 1234.45,60.0" stroke-width="2" class="exon" fill="#d59d7c"/>
      <polygon points="1244.7,69.75 1244.7,10.25 1274.45,40.0" stroke-width="2" class="exon" fill="#d59d7c"/>
      <polygon points="1222.95,60.0 1222.95,20.0 1228.65,20.0 1228.65,60.0" stroke-width="2" class="intron" fill="#dddddd" stroke-dasharray="2,2"/>
      <polygon points="1241.1,73.35 1241.1,6.65 1244.65,10.2 1244.65,69.8" stroke-width="2" class="intron" fill="#dddddd" stroke-dasharray="2,2"/>
    </g>
    <g>
      <title>ADY00129.1 [BGC0000104.1~L0+CDS2]
Uncharacterized protein conserved in bacteria (DUF2236)</title>
      <polygon points="1142.3,60.0 1142.3,20.0 1128.05,20.0 1128.05,60.0" stroke-width="2" class="exon" fill="#c2b35c"/>
      <polygon points="1123.15,60.0 1123.15,20.0 1108.45,20.0 1108.45,0.0 1098.4,10.05 1098.4,69.95 1108.45,80.0 1108.45,60.0" stroke-width="2" class="exon" fill="#c2b35c"/>
      <polygon points="1091.05,62.6 1091.05,17.4 1076.7,31.75 1076.7,48.25" stroke-width="2" class="exon" fill="#c2b35c"/>
      <polygon points="1074.05,45.6 1074.05,34.4 1068.45,40.0" stroke-width="2" class="exon" fill="#c2b35c"/>
      <polygon points="1128.0,60.0 1128.0,20.0 1123.2,20.0 1123.2,60.0" stroke-width="2" class="intron" fill="#dddddd" stroke-dasharray="2,2"/>
      <polygon points="1098.35,69.9 1098.35,10.1 1091.1,17.35 1091.1,62.65" stroke-width="2" class="intron" fill="#dddddd" stroke-dasharray="2,2"/>
      <polygon points="1076.65,48.2 1076.65,31.8 1074.1,34.35 1074.1,45.65" stroke-width="2" class="intron" fill="#dddddd" stroke-dasharray="2,2"/>
    </g>
    <g>
      <title>ADY00130.1 [BGC0000104.1~L0+CDS3]
nrPKS
Starter unit:ACP transacylase in aflatoxin biosynthesis + Beta-ketoacyl synthase, N-terminal domain + Beta-ketoacyl synthase, C-terminal domain + Acyl transferase domain + Polyketide synthase dehydratase + Phosphopantetheine attachment site + Helix-turn-helix domain + Methyltransferase domain + alpha/beta hydrolase fold + Prolyl oligopeptidase family</title>
      <polygon points="660.45,60.0 660.45,20.0 689.2,20.0 689.2,60.0" stroke-width="2" class="exon" fill="#76b7f4"/>
      <polygon points="699.25,60.0 699.25,20.0 750.9,20.0 750.9,60.0" stroke-width="2" class="exon" fill="#76b7f4"/>
      <polygon points="753.8,60.0 753.8,20.0 772.6,20.0 772.6,60.0" stroke-width="2" class="exon" fill="#76b7f4"/>
      <polygon points="775.85,60.0 775.85,20.0 997.7,20.0 997.7,60.0" stroke-width="2" class="exon" fill="#76b7f4"/>
      <polygon points="1001.4,60.0 1001.4,20.0 1007.7,20.0 1007.7,0.0 1047.7,40.0 1007.7,80.0 1007.7,60.0" stroke-width="2" class="exon" fill="#76b7f4"/>
      <polygon points="689.25,60.0 689.25,20.0 699.2,20.0 699.2,60.0" stroke-width="2" class="intron" fill="#dddddd" stroke-dasharray="2,2"/>
      <polygon points="750.95,60.0 750.95,20.0 753.75,20.0 753.75,60.0" stroke-width="2" class="intron" fill="#dddddd" stroke-dasharray="2,2"/>
      <polygon points="772.65,60.0 772.65,20.0 775.8,20.0 775.8,60.0" stroke-width="2" class="intron" fill="#dddddd" stroke-dasharray="2,2"/>
      <polygon points="997.75,60.0 997.75,20.0 1001.35,20.0 1001.35,60.0" stroke-width="2" class="intron" fill="#dddddd" stroke-dasharray="2,2"/>
    </g>
    <g>
      <title>ADY00131.1 [BGC0000104.1~L0+CDS4]
Cytochrome P450</title>
      <polygon points="485.55,60.0 485.55,20.0 457.2,20.0 457.2,60.0" stroke-width="2" class="exon" fill="#55d86b"/>
      <polygon points="449.8,74.35 449.8,5.65 443.55,11.9 443.55,68.1" stroke-width="2" class="exon" fill="#55d86b"/>
      <polygon points="440.4,64.95 440.4,15.05 415.45,40.0" stroke-width="2" class="exon" fill="#55d86b"/>
      <polygon points="457.15,60.0 457.15,20.0 455.45,20.0 455.45,0.0 449.85,5.6 449.85,74.4 455.45,80.0 455.45,60.0" stroke-width="2" class="intron" fill="#dddddd" stroke-dasharray="2,2"/>
      <polygon points="443.5,68.05 443.5,11.95 440.45,15.0 440.45,65.0" stroke-width="2" class="intron" fill="#dddddd" stroke-dasharray="2,2"/>
    </g>
    <g>
      <title>ADY00132.1 [BGC0000104.1~L0+CDS5]
Metallo-beta-lactamase superfamily</title>
      <polygon points="387.5,80.0 387.5,0.0 348.2,40.0" stroke-width="2" class="exon" fill="#cec660"/>
    </g>
    <g>
      <title>ADY00133.1 [BGC0000104.1~L0+CDS6]
IMP dehydrogenase / GMP reductase domain</title>
      <polygon points="241.6,60.0 241.6,20.0 249.0,20.0 249.0,60.0" stroke-width="2" class="exon" fill="#e163da"/>
      <polygon points="251.65,60.0 251.65,20.0 267.1,20.0 267.1,60.0" stroke-width="2" class="exon" fill="#e163da"/>
      <polygon points="270.25,60.0 270.25,20.0 286.6,20.0 286.6,0.0 326.6,40.0 286.6,80.0 286.6,60.0" stroke-width="2" class="exon" fill="#e163da"/>
      <polygon points="249.05,60.0 249.05,20.0 251.6,20.0 251.6,60.0" stroke-width="2" class="intron" fill="#dddddd" stroke-dasharray="2,2"/>
      <polygon points="267.15,60.0 267.15,20.0 270.2,20.0 270.2,60.0" stroke-width="2" class="intron" fill="#dddddd" stroke-dasharray="2,2"/>
    </g>
    <g>
      <title>ADY00134.1 [BGC0000104.1~L0+CDS7]
O-methyltransferase domain</title>
      <polygon points="148.3,60.0 148.3,20.0 156.7,20.0 156.7,60.0" stroke-width="2" class="exon" fill="#3233be"/>
      <polygon points="159.3,60.0 159.3,20.0 170.75,20.0 170.75,0.0 210.75,40.0 170.75,80.0 170.75,60.0" stroke-width="2" class="exon" fill="#3233be"/>
      <polygon points="156.75,60.0 156.75,20.0 159.25,20.0 159.25,60.0" stroke-width="2" class="intron" fill="#dddddd" stroke-dasharray="2,2"/>
    </g>
    <g>
      <title>ADY00135.1 [BGC0000104.1~L0+CDS8]
Alpha/beta hydrolase family</title>
      <polygon points="0.15,60.0 0.15,20.0 9.75,20.0 9.75,60.0" stroke-width="2" class="exon" fill="#7147db"/>
      <polygon points="12.5,60.0 12.5,20.0 19.15,20.0 19.15,60.0" stroke-width="2" class="exon" fill="#7147db"/>
      <polygon points="21.8,60.0 21.8,20.0 27.25,20.0 27.25,60.0" stroke-width="2" class="exon" fill="#7147db"/>
      <polygon points="30.8,60.0 30.8,20.0 34.2,20.0 34.2,0.0 74.2,40.0 34.2,80.0 34.2,60.0" stroke-width="2" class="exon" fill="#7147db"/>
      <polygon points="9.8,60.0 9.8,20.0 12.45,20.0 12.45,60.0" stroke-width="2" class="intron" fill="#dddddd" stroke-dasharray="2,2"/>
      <polygon points="19.2,60.0 19.2,20.0 21.75,20.0 21.75,60.0" stroke-width="2" class="intron" fill="#dddddd" stroke-dasharray="2,2"/>
      <polygon points="27.3,60.0 27.3,20.0 30.75,20.0 30.75,60.0" stroke-width="2" class="intron" fill="#dddddd" stroke-dasharray="2,2"/>
    </g>
  </g>
  <g>
    <title>BGC0001360.1</title>
    <line x1="75" y1="122" x2="1234" y2="122" stroke="#464646" stroke-width="3"/>
    <g>
      <title>CDM36721.1 [BGC0001360.1~L0+CDS1]
Alpha/beta hydrolase family</title>
      <polygon points="75.3,142.0 75.3,102.0 84.9,102.0 84.9,142.0" stroke-width="2" class="exon" fill="#7147db"/>
      <polygon points="87.6,142.0 87.6,102.0 94.25,102.0 94.25,142.0" stroke-width="2" class="exon" fill="#7147db"/>
      <polygon points="97.1,142.0 97.1,102.0 102.55,102.0 102.55,142.0" stroke-width="2" class="exon" fill="#7147db"/>
      <polygon points="105.85,142.0 105.85,102.0 109.25,102.0 109.25,82.0 149.25,122.0 109.25,162.0 109.25,142.0" stroke-width="2" class="exon" fill="#7147db"/>
      <polygon points="84.95,142.0 84.95,102.0 87.55,102.0 87.55,142.0" stroke-width="2" class="intron" fill="#dddddd" stroke-dasharray="2,2"/>
      <polygon points="94.3,142.0 94.3,102.0 97.05,102.0 97.05,142.0" stroke-width="2" class="intron" fill="#dddddd" stroke-dasharray="2,2"/>
      <polygon points="102.6,142.0 102.6,102.0 105.8,102.0 105.8,142.0" stroke-width="2" class="intron" fill="#dddddd" stroke-dasharray="2,2"/>
    </g>
    <g>
      <title>CDM36722.1 [BGC0001360.1~L0+CDS2]
O-methyltransferase domain</title>
      <polygon points="201.3,142.0 201.3,102.0 209.7,102.0 209.7,142.0" stroke-width="2" class="exon" fill="#3233be"/>
      <polygon points="212.35,142.0 212.35,102.0 223.8,102.0 223.8,82.0 263.8,122.0 223.8,162.0 223.8,142.0" stroke-width="2" class="exon" fill="#3233be"/>
      <polygon points="209.75,142.0 209.75,102.0 212.3,102.0 212.3,142.0" stroke-width="2" class="intron" fill="#dddddd" stroke-dasharray="2,2"/>
    </g>
    <g>
      <title>CDM36723.1 [BGC0001360.1~L0+CDS3]
IMP dehydrogenase / GMP reductase domain</title>
      <polygon points="292.85,142.0 292.85,102.0 300.1,102.0 300.1,142.0" stroke-width="2" class="exon" fill="#e163da"/>
      <polygon points="302.7,142.0 302.7,102.0 318.15,102.0 318.15,142.0" stroke-width="2" class="exon" fill="#e163da"/>
      <polygon points="321.9,142.0 321.9,102.0 338.25,102.0 338.25,82.0 378.25,122.0 338.25,162.0 338.25,142.0" stroke-width="2" class="exon" fill="#e163da"/>
      <polygon points="300.15,142.0 300.15,102.0 302.65,102.0 302.65,142.0" stroke-width="2" class="intron" fill="#dddddd" stroke-dasharray="2,2"/>
      <polygon points="318.2,142.0 318.2,102.0 321.85,102.0 321.85,142.0" stroke-width="2" class="intron" fill="#dddddd" stroke-dasharray="2,2"/>
    </g>
    <g>
      <title>CDM36724.1 [BGC0001360.1~L0+CDS4]
Cytochrome P450 + Metallo-beta-lactamase superfamily</title>
      <polygon points="575.7,142.0 575.7,102.0 570.5,102.0 570.5,142.0" stroke-width="2" class="exon" fill="#55d86b"/>
      <polygon points="567.9,142.0 567.9,102.0 565.85,102.0 565.85,142.0" stroke-width="2" class="exon" fill="#55d86b"/>
      <polygon points="541.05,142.0 541.05,102.0 521.9,102.0 521.9,142.0" stroke-width="2" class="exon" fill="#55d86b"/>
      <polygon points="518.2,142.0 518.2,102.0 499.75,102.0 499.75,142.0" stroke-width="2" class="exon" fill="#55d86b"/>
      <polygon points="496.65,142.0 496.65,102.0 486.05,102.0 486.05,142.0" stroke-width="2" class="exon" fill="#55d86b"/>
      <polygon points="482.8,142.0 482.8,102.0 460.25,102.0 460.25,142.0" stroke-width="2" class="exon" fill="#55d86b"/>
      <polygon points="457.55,142.0 457.55,102.0 453.05,102.0 453.05,142.0" stroke-width="2" class="exon" fill="#55d86b"/>
      <polygon points="450.3,142.0 450.3,102.0 440.75,102.0 440.75,142.0" stroke-width="2" class="exon" fill="#55d86b"/>
      <polygon points="438.1,142.0 438.1,102.0 430.2,102.0 430.2,82.0 390.2,122.0 430.2,162.0 430.2,142.0" stroke-width="2" class="exon" fill="#55d86b"/>
      <polygon points="570.45,142.0 570.45,102.0 567.95,102.0 567.95,142.0" stroke-width="2" class="intron" fill="#dddddd" stroke-dasharray="2,2"/>
      <polygon points="565.8,142.0 565.8,102.0 541.1,102.0 541.1,142.0" stroke-width="2" class="intron" fill="#dddddd" stroke-dasharray="2,2"/>
      <polygon points="521.85,142.0 521.85,102.0 518.25,102.0 518.25,142.0" stroke-width="2" class="intron" fill="#dddddd" stroke-dasharray="2,2"/>
      <polygon points="499.7,142.0 499.7,102.0 496.7,102.0 496.7,142.0" stroke-width="2" class="intron" fill="#dddddd" stroke-dasharray="2,2"/>
      <polygon points="486.0,142.0 486.0,102.0 482.85,102.0 482.85,142.0" stroke-width="2" class="intron" fill="#dddddd" stroke-dasharray="2,2"/>
      <polygon points="460.2,142.0 460.2,102.0 457.6,102.0 457.6,142.0" stroke-width="2" class="intron" fill="#dddddd" stroke-dasharray="2,2"/>
      <polygon points="453.0,142.0 453.0,102.0 450.35,102.0 450.35,142.0" stroke-width="2" class="intron" fill="#dddddd" stroke-dasharray="2,2"/>
      <polygon points="440.7,142.0 440.7,102.0 438.15,102.0 438.15,142.0" stroke-width="2" class="intron" fill="#dddddd" stroke-dasharray="2,2"/>
    </g>
    <g>
      <title>CDM36725.1 [BGC0001360.1~L0+CDS5]
</title>
      <polygon points="600.5,162.0 600.5,82.0 610.3,96.99 610.3,147.01" stroke-width="2" class="exon" fill="#eff0f1"/>
      <polygon points="615.9,138.44 615.9,105.56 619.75,111.45 619.75,132.55" stroke-width="2" class="exon" fill="#eff0f1"/>
      <polygon points="622.75,127.97 622.75,116.03 626.65,122.0" stroke-width="2" class="exon" fill="#eff0f1"/>
      <polygon points="610.35,146.93 610.35,97.07 615.85,105.48 615.85,138.52" stroke-width="2" class="intron" fill="#dddddd" stroke-dasharray="2,2"/>
      <polygon points="619.8,132.48 619.8,111.52 622.7,115.96 622.7,128.04" stroke-width="2" class="intron" fill="#dddddd" stroke-dasharray="2,2"/>
    </g>
    <g>
      <title>CDM36726.1 [BGC0001360.1~L0+CDS6]
nrPKS
Starter unit:ACP transacylase in aflatoxin biosynthesis + Beta-ketoacyl synthase, N-terminal domain + Beta-ketoacyl synthase, C-terminal domain + Acyl transferase domain + Polyketide synthase dehydratase + Phosphopantetheine attachment site + Helix-turn-helix domain + Methyltransferase domain + alpha/beta hydrolase fold</title>
      <polygon points="660.3,142.0 660.3,102.0 692.1,102.0 692.1,142.0" stroke-width="2" class="exon" fill="#76b7f4"/>
      <polygon points="695.1,142.0 695.1,102.0 750.3,102.0 750.3,142.0" stroke-width="2" class="exon" fill="#76b7f4"/>
      <polygon points="753.55,142.0 753.55,102.0 772.35,102.0 772.35,142.0" stroke-width="2" class="exon" fill="#76b7f4"/>
      <polygon points="776.6,142.0 776.6,102.0 997.85,102.0 997.85,142.0" stroke-width="2" class="exon" fill="#76b7f4"/>
      <polygon points="1001.4,142.0 1001.4,102.0 1006.05,102.0 1006.05,82.0 1046.05,122.0 1006.05,162.0 1006.05,142.0" stroke-width="2" class="exon" fill="#76b7f4"/>
      <polygon points="692.15,142.0 692.15,102.0 695.05,102.0 695.05,142.0" stroke-width="2" class="intron" fill="#dddddd" stroke-dasharray="2,2"/>
      <polygon points="750.35,142.0 750.35,102.0 753.5,102.0 753.5,142.0" stroke-width="2" class="intron" fill="#dddddd" stroke-dasharray="2,2"/>
      <polygon points="772.4,142.0 772.4,102.0 776.55,102.0 776.55,142.0" stroke-width="2" class="intron" fill="#dddddd" stroke-dasharray="2,2"/>
      <polygon points="997.9,142.0 997.9,102.0 1001.35,102.0 1001.35,142.0" stroke-width="2" class="intron" fill="#dddddd" stroke-dasharray="2,2"/>
    </g>
    <g>
      <title>CDM36727.1 [BGC0001360.1~L0+CDS7]
Uncharacterized protein conserved in bacteria (DUF2236)</title>
      <polygon points="1124.8,142.0 1124.8,102.0 1117.35,102.0 1117.35,82.0 1109.95,89.4 1109.95,154.6 1117.35,162.0 1117.35,142.0" stroke-width="2" class="exon" fill="#c2b35c"/>
      <polygon points="1107.35,152.0 1107.35,92.0 1077.35,122.0" stroke-width="2" class="exon" fill="#c2b35c"/>
      <polygon points="1109.9,154.55 1109.9,89.45 1107.4,91.95 1107.4,152.05" stroke-width="2" class="intron" fill="#dddddd" stroke-dasharray="2,2"/>
    </g>
    <g>
      <title>CDM36728.1 [BGC0001360.1~L0+CDS8]
Terpene
UbiA prenyltransferase family</title>
      <polygon points="1176.85,142.0 1176.85,102.0 1182.15,102.0 1182.15,142.0" stroke-width="2" class="exon" fill="#d59d7c"/>
      <polygon points="1185.6,142.0 1185.6,102.0 1193.15,102.0 1193.15,82.0 1200.35,89.2 1200.35,154.8 1193.15,162.0 1193.15,142.0" stroke-width="2" class="exon" fill="#d59d7c"/>
      <polygon points="1204.3,150.85 1204.3,93.15 1233.15,122.0" stroke-width="2" class="exon" fill="#d59d7c"/>
      <polygon points="1182.2,142.0 1182.2,102.0 1185.55,102.0 1185.55,142.0" stroke-width="2" class="intron" fill="#dddddd" stroke-dasharray="2,2"/>
      <polygon points="1200.4,154.75 1200.4,89.25 1204.25,93.1 1204.25,150.9" stroke-width="2" class="intron" fill="#dddddd" stroke-dasharray="2,2"/>
    </g>
  </g>
  <g>
    <title>BGC0001677.1</title>
    <line x1="75" y1="204" x2="1241" y2="204" stroke="#464646" stroke-width="3"/>
    <g>
      <title>API82660.1 [BGC0001677.1~L0+CDS1]
Alpha/beta hydrolase family</title>
      <polygon points="75.6,224.0 75.6,184.0 85.2,184.0 85.2,224.0" stroke-width="2" class="exon" fill="#7147db"/>
      <polygon points="97.8,224.0 97.8,184.0 109.55,184.0 109.55,164.0 149.55,204.0 109.55,244.0 109.55,224.0" stroke-width="2" class="exon" fill="#7147db"/>
      <polygon points="85.25,224.0 85.25,184.0 97.75,184.0 97.75,224.0" stroke-width="2" class="intron" fill="#dddddd" stroke-dasharray="2,2"/>
    </g>
    <g>
      <title>API82661.1 [BGC0001677.1~L0+CDS2]
O-methyltransferase domain</title>
      <polygon points="201.0,224.0 201.0,184.0 209.4,184.0 209.4,224.0" stroke-width="2" class="exon" fill="#3233be"/>
      <polygon points="214.15,224.0 214.15,184.0 223.5,184.0 223.5,164.0 263.5,204.0 223.5,244.0 223.5,224.0" stroke-width="2" class="exon" fill="#3233be"/>
      <polygon points="209.45,224.0 209.45,184.0 214.1,184.0 214.1,224.0" stroke-width="2" class="intron" fill="#dddddd" stroke-dasharray="2,2"/>
    </g>
    <g>
      <title>API82662.1 [BGC0001677.1~L0+CDS3]
IMP dehydrogenase / GMP reductase domain</title>
      <polygon points="292.8,224.0 292.8,184.0 300.0,184.0 300.0,224.0" stroke-width="2" class="exon" fill="#e163da"/>
      <polygon points="306.65,224.0 306.65,184.0 318.05,184.0 318.05,224.0" stroke-width="2" class="exon" fill="#e163da"/>
      <polygon points="326.45,224.0 326.45,184.0 338.2,184.0 338.2,164.0 378.2,204.0 338.2,244.0 338.2,224.0" stroke-width="2" class="exon" fill="#e163da"/>
      <polygon points="300.05,224.0 300.05,184.0 306.6,184.0 306.6,224.0" stroke-width="2" class="intron" fill="#dddddd" stroke-dasharray="2,2"/>
      <polygon points="318.1,224.0 318.1,184.0 326.4,184.0 326.4,224.0" stroke-width="2" class="intron" fill="#dddddd" stroke-dasharray="2,2"/>
    </g>
    <g>
      <title>API82663.1 [BGC0001677.1~L0+CDS4]
Cytochrome P450</title>
      <polygon points="575.7,224.0 575.7,184.0 570.6,184.0 570.6,224.0" stroke-width="2" class="exon" fill="#55d86b"/>
      <polygon points="540.8,224.0 540.8,184.0 521.9,184.0 521.9,224.0" stroke-width="2" class="exon" fill="#55d86b"/>
      <polygon points="515.8,224.0 515.8,184.0 499.75,184.0 499.75,224.0" stroke-width="2" class="exon" fill="#55d86b"/>
      <polygon points="496.65,224.0 496.65,184.0 486.0,184.0 486.0,224.0" stroke-width="2" class="exon" fill="#55d86b"/>
      <polygon points="481.25,224.0 481.25,184.0 460.25,184.0 460.25,224.0" stroke-width="2" class="exon" fill="#55d86b"/>
      <polygon points="429.5,243.3 429.5,164.7 390.2,204.0" stroke-width="2" class="exon" fill="#55d86b"/>
      <polygon points="570.55,224.0 570.55,184.0 540.85,184.0 540.85,224.0" stroke-width="2" class="intron" fill="#dddddd" stroke-dasharray="2,2"/>
      <polygon points="521.85,224.0 521.85,184.0 515.85,184.0 515.85,224.0" stroke-width="2" class="intron" fill="#dddddd" stroke-dasharray="2,2"/>
      <polygon points="499.7,224.0 499.7,184.0 496.7,184.0 496.7,224.0" stroke-width="2" class="intron" fill="#dddddd" stroke-dasharray="2,2"/>
      <polygon points="485.95,224.0 485.95,184.0 481.3,184.0 481.3,224.0" stroke-width="2" class="intron" fill="#dddddd" stroke-dasharray="2,2"/>
      <polygon points="460.2,224.0 460.2,184.0 430.2,184.0 430.2,164.0 429.55,164.65 429.55,243.35 430.2,244.0 430.2,224.0" stroke-width="2" class="intron" fill="#dddddd" stroke-dasharray="2,2"/>
    </g>
    <g>
      <title>API82664.1 [BGC0001677.1~L0+CDS5]
nrPKS
Starter unit:ACP transacylase in aflatoxin biosynthesis + Beta-ketoacyl synthase, N-terminal domain + Acyl transferase domain + Polyketide synthase dehydratase + Phosphopantetheine attachment site + Helix-turn-helix domain + Methyltransferase domain + alpha/beta hydrolase fold + Prolyl oligopeptidase family</title>
      <polygon points="660.3,224.0 660.3,184.0 692.25,184.0 692.25,224.0" stroke-width="2" class="exon" fill="#76b7f4"/>
      <polygon points="703.95,224.0 703.95,184.0 750.3,184.0 750.3,224.0" stroke-width="2" class="exon" fill="#76b7f4"/>
      <polygon points="776.55,224.0 776.55,184.0 997.65,184.0 997.65,224.0" stroke-width="2" class="exon" fill="#76b7f4"/>
      <polygon points="1001.65,224.0 1001.65,184.0 1008.15,184.0 1008.15,164.0 1048.15,204.0 1008.15,244.0 1008.15,224.0" stroke-width="2" class="exon" fill="#76b7f4"/>
      <polygon points="692.3,224.0 692.3,184.0 703.9,184.0 703.9,224.0" stroke-width="2" class="intron" fill="#dddddd" stroke-dasharray="2,2"/>
      <polygon points="750.35,224.0 750.35,184.0 776.5,184.0 776.5,224.0" stroke-width="2" class="intron" fill="#dddddd" stroke-dasharray="2,2"/>
      <polygon points="997.7,224.0 997.7,184.0 1001.6,184.0 1001.6,224.0" stroke-width="2" class="intron" fill="#dddddd" stroke-dasharray="2,2"/>
    </g>
    <g>
      <title>API82665.1 [BGC0001677.1~L0+CDS6]
Uncharacterized protein conserved in bacteria (DUF2236)</title>
      <polygon points="1133.5,224.0 1133.5,184.0 1126.05,184.0 1126.05,164.0 1118.65,171.4 1118.65,236.6 1126.05,244.0 1126.05,224.0" stroke-width="2" class="exon" fill="#c2b35c"/>
      <polygon points="1110.65,228.6 1110.65,179.4 1086.05,204.0" stroke-width="2" class="exon" fill="#c2b35c"/>
      <polygon points="1118.6,236.55 1118.6,171.45 1110.7,179.35 1110.7,228.65" stroke-width="2" class="intron" fill="#dddddd" stroke-dasharray="2,2"/>
    </g>
    <g>
      <title>API82666.1 [BGC0001677.1~L0+CDS7]
Terpene
UbiA prenyltransferase family</title>
      <polygon points="1185.55,224.0 1185.55,184.0 1190.8,184.0 1190.8,224.0" stroke-width="2" class="exon" fill="#d59d7c"/>
      <polygon points="1203.4,242.45 1203.4,165.55 1208.95,171.1 1208.95,236.9" stroke-width="2" class="exon" fill="#d59d7c"/>
      <polygon points="1213.5,232.35 1213.5,175.65 1241.85,204.0" stroke-width="2" class="exon" fill="#d59d7c"/>
      <polygon points="1190.85,224.0 1190.85,184.0 1201.85,184.0 1201.85,164.0 1203.35,165.5 1203.35,242.5 1201.85,244.0 1201.85,224.0" stroke-width="2" class="intron" fill="#dddddd" stroke-dasharray="2,2"/>
      <polygon points="1209.0,236.85 1209.0,171.15 1213.45,175.6 1213.45,232.4" stroke-width="2" class="intron" fill="#dddddd" stroke-dasharray="2,2"/>
    </g>
  </g>
</svg>
