<svg xmlns="http://www.w3.org/2000/svg" version="1.1" baseProfile="full" width="1278" height="84">
  <g>
    <title>BGC0000104.1</title>
    <line x1="2" y1="42" x2="1276" y2="42" stroke="#464646" stroke-width="3"/>
    <g>
      <title>BGC0000104.1~L0+CDS1</title>
      <polygon points="1219.6,62.0 1219.6,22.0 1224.9,22.0 1224.9,62.0" stroke-width="2" class="exon" fill="#ffffff" stroke="#0a0a0a"/>
      <polygon points="1230.7,62.0 1230.7,22.0 1236.45,22.0 1236.45,2.0 1243.05,8.6 1243.05,75.4 1236.45,82.0 1236.45,62.0" stroke-width="2" class="exon" fill="#ffffff" stroke="#0a0a0a"/>
      <polygon points="1246.7,71.75 1246.7,12.25 1276.45,42.0" stroke-width="2" class="exon" fill="#ffffff" stroke="#0a0a0a"/>
      <polygon points="1224.95,62.0 1224.95,22.0 1230.65,22.0 1230.65,62.0" stroke-width="2" class="intron" fill="#dddddd" stroke-dasharray="2,2" stroke="#919191"/>
      <polygon points="1243.1,75.35 1243.1,8.65 1246.65,12.2 1246.65,71.8" stroke-width="2" class="intron" fill="#dddddd" stroke-dasharray="2,2" stroke="#919191"/>
      <g class="domain,UbiA">
        <title>UbiA prenyltransferase family 
PF01040.18 - UbiA</title>
        <polygon points="1231.95,26.0 1243.05,26.0 1243.1,37.0 1246.65,37.0 1246.7,26.0 1260.45,26.0 1270.2,36.0 1270.2,48.0 1260.45,58.0 1246.7,58.0 1246.65,47.0 1243.1,47.0 1243.05,58.0 1231.95,58.0" fill="rgb(189,57,100)" stroke-linejoin="round"/>
        <path stroke="rgb(151,46,80)" stroke-linejoin="round" stroke-width="1" d="M1243.05 26.0 L 1231.95 26.0, 1231.95 58.0, 1243.05 58.0" fill="none"/>
        <path stroke="rgb(151,46,80)" stroke-linejoin="round" stroke-width="1" d="M1246.7 26.0 L 1260.45 26.0, 1270.2 36.0, 1270.2 48.0, 1260.45 58.0, 1246.7 58.0" fill="none"/>
      </g>
    </g>
    <g>
      <title>BGC0000104.1~L0+CDS2</title>
      <polygon points="1144.3,62.0 1144.3,22.0 1130.05,22.0 1130.05,62.0" stroke-width="2" class="exon" fill="#ffffff" stroke="#0a0a0a"/>
      <polygon points="1125.15,62.0 1125.15,22.0 1110.45,22.0 1110.45,2.0 1100.4,12.05 1100.4,71.95 1110.45,82.0 1110.45,62.0" stroke-width="2" class="exon" fill="#ffffff" stroke="#0a0a0a"/>
      <polygon points="1093.05,64.6 1093.05,19.4 1078.7,33.75 1078.7,50.25" stroke-width="2" class="exon" fill="#ffffff" stroke="#0a0a0a"/>
      <polygon points="1076.05,47.6 1076.05,36.4 1070.45,42.0" stroke-width="2" class="exon" fill="#ffffff" stroke="#0a0a0a"/>
      <polygon points="1130.0,62.0 1130.0,22.0 1125.2,22.0 1125.2,62.0" stroke-width="2" class="intron" fill="#dddddd" stroke-dasharray="2,2" stroke="#919191"/>
      <polygon points="1100.35,71.9 1100.35,12.1 1093.1,19.35 1093.1,64.65" stroke-width="2" class="intron" fill="#dddddd" stroke-dasharray="2,2" stroke="#919191"/>
      <polygon points="1078.65,50.2 1078.65,33.8 1076.1,36.35 1076.1,47.65" stroke-width="2" class="intron" fill="#dddddd" stroke-dasharray="2,2" stroke="#919191"/>
      <g class="domain,DUF2236">
        <title>Uncharacterized protein conserved in bacteria (DUF2236) 
PF09995.9 - DUF2236</title>
        <polygon points="1132.0,26.0 1130.05,26.0 1130.0,37.0 1125.2,37.0 1125.15,26.0 1100.4,26.0 1100.35,37.0 1093.1,37.0 1093.05,26.0 1087.45,26.0 1087.45,58.0 1093.05,58.0 1093.1,47.0 1100.35,47.0 1100.4,58.0 1125.15,58.0 1125.2,47.0 1130.0,47.0 1130.05,58.0 1132.0,58.0" fill="rgb(194,179,92)" stroke-linejoin="round"/>
        <path stroke="rgb(155,143,74)" stroke-linejoin="round" stroke-width="1" d="M1130.05 26.0 L 1132.0 26.0, 1132.0 58.0, 1130.05 58.0" fill="none"/>
        <path stroke="rgb(155,143,74)" stroke-linejoin="round" stroke-width="1" d="M1125.15 26.0 L 1100.4 26.0" fill="none"/>
        <path stroke="rgb(155,143,74)" stroke-linejoin="round" stroke-width="1" d="M1125.15 58.0 L 1100.4 58.0" fill="none"/>
        <path stroke="rgb(155,143,74)" stroke-linejoin="round" stroke-width="1" d="M1093.05 26.0 L 1087.45 26.0, 1087.45 58.0, 1093.05 58.0" fill="none"/>
      </g>
    </g>
    <g>
      <title>BGC0000104.1~L0+CDS3</title>
      <polygon points="662.45,62.0 662.45,22.0 691.2,22.0 691.2,62.0" stroke-width="2" class="exon" fill="#ffffff" stroke="#0a0a0a"/>
      <polygon points="701.25,62.0 701.25,22.0 752.9,22.0 752.9,62.0" stroke-width="2" class="exon" fill="#ffffff" stroke="#0a0a0a"/>
      <polygon points="755.8,62.0 755.8,22.0 774.6,22.0 774.6,62.0" stroke-width="2" class="exon" fill="#ffffff" stroke="#0a0a0a"/>
      <polygon points="777.85,62.0 777.85,22.0 999.7,22.0 999.7,62.0" stroke-width="2" class="exon" fill="#ffffff" stroke="#0a0a0a"/>
      <polygon points="1003.4,62.0 1003.4,22.0 1009.7,22.0 1009.7,2.0 1049.7,42.0 1009.7,82.0 1009.7,62.0" stroke-width="2" class="exon" fill="#ffffff" stroke="#0a0a0a"/>
      <polygon points="691.25,62.0 691.25,22.0 701.2,22.0 701.2,62.0" stroke-width="2" class="intron" fill="#dddddd" stroke-dasharray="2,2" stroke="#919191"/>
      <polygon points="752.95,62.0 752.95,22.0 755.75,22.0 755.75,62.0" stroke-width="2" class="intron" fill="#dddddd" stroke-dasharray="2,2" stroke="#919191"/>
      <polygon points="774.65,62.0 774.65,22.0 777.8,22.0 777.8,62.0" stroke-width="2" class="intron" fill="#dddddd" stroke-dasharray="2,2" stroke="#919191"/>
      <polygon points="999.75,62.0 999.75,22.0 1003.35,22.0 1003.35,62.0" stroke-width="2" class="intron" fill="#dddddd" stroke-dasharray="2,2" stroke="#919191"/>
      <g class="domain,SAT">
        <title>Starter unit:ACP transacylase in aflatoxin biosynthesis [SAT]
PF16073.5 - SAT</title>
        <polygon points="682.55,26.0 689.0,26.0 689.0,58.0 682.55,58.0" fill="rgb(77,115,183)" stroke-linejoin="round"/>
        <path stroke="rgb(62,92,146)" stroke-linejoin="round" stroke-width="1" d="M682.55 26.0 L 689.0 26.0, 689.0 58.0, 682.55 58.0 Z" fill="none"/>
      </g>
      <g class="domain,ketoacyl-synt">
        <title>Beta-ketoacyl synthase, N-terminal domain [KS]
PF00109.26 - ketoacyl-synt</title>
        <polygon points="726.15,26.0 752.9,26.0 752.95,37.0 755.75,37.0 755.8,26.0 765.45,26.0 765.45,58.0 755.8,58.0 755.75,47.0 752.95,47.0 752.9,58.0 726.15,58.0" fill="rgb(112,116,228)" stroke-linejoin="round"/>
        <path stroke="rgb(90,93,182)" stroke-linejoin="round" stroke-width="1" d="M752.9 26.0 L 726.15 26.0, 726.15 58.0, 752.9 58.0" fill="none"/>
        <path stroke="rgb(90,93,182)" stroke-linejoin="round" stroke-width="1" d="M755.8 26.0 L 765.45 26.0, 765.45 58.0, 755.8 58.0" fill="none"/>
      </g>
      <g class="domain,Ketoacyl-synt_C">
        <title>Beta-ketoacyl synthase, C-terminal domain [KS_C]
PF02801.22 - Ketoacyl-synt_C</title>
        <polygon points="766.5,26.0 774.6,26.0 774.65,37.0 777.8,37.0 777.85,26.0 787.25,26.0 787.25,58.0 777.85,58.0 777.8,47.0 774.65,47.0 774.6,58.0 766.5,58.0" fill="rgb(215,78,102)" stroke-linejoin="round"/>
        <path stroke="rgb(172,62,82)" stroke-linejoin="round" stroke-width="1" d="M774.6 26.0 L 766.5 26.0, 766.5 58.0, 774.6 58.0" fill="none"/>
        <path stroke="rgb(172,62,82)" stroke-linejoin="round" stroke-width="1" d="M777.85 26.0 L 787.25 26.0, 787.25 58.0, 777.85 58.0" fill="none"/>
      </g>
      <g class="domain,Acyl_transf_1">
        <title>Acyl transferase domain [AT]
PF00698.21 - Acyl_transf_1</title>
        <polygon points="818.75,26.0 852.2,26.0 852.2,58.0 818.75,58.0" fill="rgb(59,176,209)" stroke-linejoin="round"/>
        <path stroke="rgb(47,141,167)" stroke-linejoin="round" stroke-width="1" d="M818.75 26.0 L 852.2 26.0, 852.2 58.0, 818.75 58.0 Z" fill="none"/>
      </g>
      <g class="domain,PS-DH">
        <title>Polyketide synthase dehydratase [DH]
PF14765.6 - PS-DH</title>
        <polygon points="871.55,26.0 912.8,26.0 912.8,58.0 871.55,58.0" fill="rgb(173,56,182)" stroke-linejoin="round"/>
        <path stroke="rgb(138,45,146)" stroke-linejoin="round" stroke-width="1" d="M871.55 26.0 L 912.8 26.0, 912.8 58.0, 871.55 58.0 Z" fill="none"/>
      </g>
      <g class="domain,PP-binding">
        <title>Phosphopantetheine attachment site [T/ACP]
PF00550.25 - PP-binding</title>
        <polygon points="920.45,26.0 930.35,26.0 930.35,58.0 920.45,58.0" fill="rgb(103,191,88)" stroke-linejoin="round"/>
        <path stroke="rgb(82,153,70)" stroke-linejoin="round" stroke-width="1" d="M920.45 26.0 L 930.35 26.0, 930.35 58.0, 920.45 58.0 Z" fill="none"/>
      </g>
      <g class="domain,HTH_51">
        <title>Helix-turn-helix domain 
PF18558.1 - HTH_51</title>
        <polygon points="938.3,26.0 949.85,26.0 949.85,58.0 938.3,58.0" fill="rgb(195,163,57)" stroke-linejoin="round"/>
        <path stroke="rgb(156,130,46)" stroke-linejoin="round" stroke-width="1" d="M938.3 26.0 L 949.85 26.0, 949.85 58.0, 938.3 58.0 Z" fill="none"/>
      </g>
      <g class="domain,Methyltransf_12">
        <title>Methyltransferase domain [CMeT]
PF08242.12 - Methyltransf_12</title>
        <polygon points="965.75,26.0 981.35,26.0 981.35,58.0 965.75,58.0" fill="rgb(187,59,115)" stroke-linejoin="round"/>
        <path stroke="rgb(150,47,92)" stroke-linejoin="round" stroke-width="1" d="M965.75 26.0 L 981.35 26.0, 981.35 58.0, 965.75 58.0 Z" fill="none"/>
      </g>
      <g class="domain,Abhydrolase_3">
        <title>alpha/beta hydrolase fold 
PF07859.13 - Abhydrolase_3</title>
        <polygon points="999.5,26.0 999.7,26.0 999.75,37.0 1003.35,37.0 1003.4,26.0 1020.7,26.0 1020.7,58.0 1003.4,58.0 1003.35,47.0 999.75,47.0 999.7,58.0 999.5,58.0" fill="rgb(183,51,179)" stroke-linejoin="round"/>
        <path stroke="rgb(146,41,143)" stroke-linejoin="round" stroke-width="1" d="M999.7 26.0 L 999.5 26.0, 999.5 58.0, 999.7 58.0" fill="none"/>
        <path stroke="rgb(146,41,143)" stroke-linejoin="round" stroke-width="1" d="M1003.4 26.0 L 1020.7 26.0, 1020.7 58.0, 1003.4 58.0" fill="none"/>
      </g>
      <g class="domain,Peptidase_S9">
        <title>Prolyl oligopeptidase family 
PF00326.21 - Peptidase_S9</title>
        <polygon points="1035.4,27.7 1048.9,41.2 1048.9,42.8 1035.4,56.3" fill="rgb(77,97,209)" stroke-linejoin="round"/>
        <path stroke="rgb(62,78,167)" stroke-linejoin="round" stroke-width="1" d="M1048.9 41.2 L 1035.4 27.7, 1035.4 56.3, 1048.9 42.8 Z" fill="none"/>
      </g>
    </g>
    <g>
      <title>BGC0000104.1~L0+CDS4</title>
      <polygon points="487.55,62.0 487.55,22.0 459.2,22.0 459.2,62.0" stroke-width="2" class="exon" fill="#ffffff" stroke="#0a0a0a"/>
      <polygon points="451.8,76.35 451.8,7.65 445.55,13.9 445.55,70.1" stroke-width="2" class="exon" fill="#ffffff" stroke="#0a0a0a"/>
      <polygon points="442.4,66.95 442.4,17.05 417.45,42.0" stroke-width="2" class="exon" fill="#ffffff" stroke="#0a0a0a"/>
      <polygon points="459.15,62.0 459.15,22.0 457.45,22.0 457.45,2.0 451.85,7.6 451.85,76.4 457.45,82.0 457.45,62.0" stroke-width="2" class="intron" fill="#dddddd" stroke-dasharray="2,2" stroke="#919191"/>
      <polygon points="445.5,70.05 445.5,13.95 442.45,17.0 442.45,67.0" stroke-width="2" class="intron" fill="#dddddd" stroke-dasharray="2,2" stroke="#919191"/>
      <g class="domain,p450">
        <title>Cytochrome P450 
PF00067.22 - p450</title>
        <polygon points="461.6,26.0 459.2,26.0 459.15,37.0 451.85,37.0 451.8,26.0 445.55,26.0 445.5,37.0 442.45,37.0 442.4,26.0 433.45,26.0 421.9,38.0 421.9,46.0 433.45,58.0 442.4,58.0 442.45,47.0 445.5,47.0 445.55,58.0 451.8,58.0 451.85,47.0 459.15,47.0 459.2,58.0 461.6,58.0" fill="rgb(85,216,107)" stroke-linejoin="round"/>
        <path stroke="rgb(68,173,86)" stroke-linejoin="round" stroke-width="1" d="M459.2 26.0 L 461.6 26.0, 461.6 58.0, 459.2 58.0" fill="none"/>
        <path stroke="rgb(68,173,86)" stroke-linejoin="round" stroke-width="1" d="M451.8 26.0 L 445.55 26.0" fill="none"/>
        <path stroke="rgb(68,173,86)" stroke-linejoin="round" stroke-width="1" d="M451.8 58.0 L 445.55 58.0" fill="none"/>
        <path stroke="rgb(68,173,86)" stroke-linejoin="round" stroke-width="1" d="M442.4 26.0 L 433.45 26.0, 421.9 38.0, 421.9 46.0, 433.45 58.0, 442.4 58.0" fill="none"/>
      </g>
    </g>
    <g>
      <title>BGC0000104.1~L0+CDS5</title>
      <polygon points="389.5,82.0 389.5,2.0 350.2,42.0" stroke-width="2" class="exon" fill="#ffffff" stroke="#0a0a0a"/>
      <g class="domain,Lactamase_B">
        <title>Metallo-beta-lactamase superfamily 
PF00753.27 - Lactamase_B</title>
        <polygon points="386.5,26.0 382.6,26.0 382.6,58.0 386.5,58.0" fill="rgb(206,198,96)" stroke-linejoin="round"/>
        <path stroke="rgb(165,158,77)" stroke-linejoin="round" stroke-width="1" d="M386.5 26.0 L 382.6 26.0, 382.6 58.0, 386.5 58.0 Z" fill="none"/>
      </g>
    </g>
    <g>
      <title>BGC0000104.1~L0+CDS6</title>
      <polygon points="243.6,62.0 243.6,22.0 251.0,22.0 251.0,62.0" stroke-width="2" class="exon" fill="#ffffff" stroke="#0a0a0a"/>
      <polygon points="253.65,62.0 253.65,22.0 269.1,22.0 269.1,62.0" stroke-width="2" class="exon" fill="#ffffff" stroke="#0a0a0a"/>
      <polygon points="272.25,62.0 272.25,22.0 288.6,22.0 288.6,2.0 328.6,42.0 288.6,82.0 288.6,62.0" stroke-width="2" class="exon" fill="#ffffff" stroke="#0a0a0a"/>
      <polygon points="251.05,62.0 251.05,22.0 253.6,22.0 253.6,62.0" stroke-width="2" class="intron" fill="#dddddd" stroke-dasharray="2,2" stroke="#919191"/>
      <polygon points="269.15,62.0 269.15,22.0 272.2,22.0 272.2,62.0" stroke-width="2" class="intron" fill="#dddddd" stroke-dasharray="2,2" stroke="#919191"/>
      <g class="domain,IMPDH">
        <title>IMP dehydrogenase / GMP reductase domain 
PF00478.25 - IMPDH</title>
        <polygon points="248.7,26.0 251.0,26.0 251.05,37.0 253.6,37.0 253.65,26.0 269.1,26.0 269.15,37.0 272.2,37.0 272.25,26.0 312.6,26.0 326.4,40.0 326.4,44.0 312.6,58.0 272.25,58.0 272.2,47.0 269.15,47.0 269.1,58.0 253.65,58.0 253.6,47.0 251.05,47.0 251.0,58.0 248.7,58.0" fill="rgb(225,99,218)" stroke-linejoin="round"/>
        <path stroke="rgb(180,79,174)" stroke-linejoin="round" stroke-width="1" d="M251.0 26.0 L 248.7 26.0, 248.7 58.0, 251.0 58.0" fill="none"/>
        <path stroke="rgb(180,79,174)" stroke-linejoin="round" stroke-width="1" d="M253.65 26.0 L 269.1 26.0" fill="none"/>
        <path stroke="rgb(180,79,174)" stroke-linejoin="round" stroke-width="1" d="M253.65 58.0 L 269.1 58.0" fill="none"/>
        <path stroke="rgb(180,79,174)" stroke-linejoin="round" stroke-width="1" d="M272.25 26.0 L 312.6 26.0, 326.4 40.0, 326.4 44.0, 312.6 58.0, 272.25 58.0" fill="none"/>
      </g>
    </g>
    <g>
      <title>BGC0000104.1~L0+CDS7</title>
      <polygon points="150.3,62.0 150.3,22.0 158.7,22.0 158.7,62.0" stroke-width="2" class="exon" fill="#ffffff" stroke="#0a0a0a"/>
      <polygon points="161.3,62.0 161.3,22.0 172.75,22.0 172.75,2.0 212.75,42.0 172.75,82.0 172.75,62.0" stroke-width="2" class="exon" fill="#ffffff" stroke="#0a0a0a"/>
      <polygon points="158.75,62.0 158.75,22.0 161.25,22.0 161.25,62.0" stroke-width="2" class="intron" fill="#dddddd" stroke-dasharray="2,2" stroke="#919191"/>
      <g class="domain,Methyltransf_2">
        <title>O-methyltransferase domain 
PF00891.18 - Methyltransf_2</title>
        <polygon points="185.55,26.0 196.75,26.0 209.25,39.0 209.25,45.0 196.75,58.0 185.55,58.0" fill="rgb(50,51,190)" stroke-linejoin="round"/>
        <path stroke="rgb(40,41,152)" stroke-linejoin="round" stroke-width="1" d="M209.25 39.0 L 196.75 26.0, 185.55 26.0, 185.55 58.0, 196.75 58.0, 209.25 45.0 Z" fill="none"/>
      </g>
    </g>
    <g>
      <title>BGC0000104.1~L0+CDS8</title>
      <polygon points="2.15,62.0 2.15,22.0 11.75,22.0 11.75,62.0" stroke-width="2" class="exon" fill="#ffffff" stroke="#0a0a0a"/>
      <polygon points="14.5,62.0 14.5,22.0 21.15,22.0 21.15,62.0" stroke-width="2" class="exon" fill="#ffffff" stroke="#0a0a0a"/>
      <polygon points="23.8,62.0 23.8,22.0 29.25,22.0 29.25,62.0" stroke-width="2" class="exon" fill="#ffffff" stroke="#0a0a0a"/>
      <polygon points="32.8,62.0 32.8,22.0 36.2,22.0 36.2,2.0 76.2,42.0 36.2,82.0 36.2,62.0" stroke-width="2" class="exon" fill="#ffffff" stroke="#0a0a0a"/>
      <polygon points="11.8,62.0 11.8,22.0 14.45,22.0 14.45,62.0" stroke-width="2" class="intron" fill="#dddddd" stroke-dasharray="2,2" stroke="#919191"/>
      <polygon points="21.2,62.0 21.2,22.0 23.75,22.0 23.75,62.0" stroke-width="2" class="intron" fill="#dddddd" stroke-dasharray="2,2" stroke="#919191"/>
      <polygon points="29.3,62.0 29.3,22.0 32.75,22.0 32.75,62.0" stroke-width="2" class="intron" fill="#dddddd" stroke-dasharray="2,2" stroke="#919191"/>
      <g class="domain,Abhydrolase_6">
        <title>Alpha/beta hydrolase family 
PF12697.7 - Abhydrolase_6</title>
        <polygon points="10.4,26.0 11.75,26.0 11.8,37.0 14.45,37.0 14.5,26.0 21.15,26.0 21.2,37.0 23.75,37.0 23.8,26.0 29.25,26.0 29.3,37.0 32.75,37.0 32.8,26.0 47.55,26.0 47.55,58.0 32.8,58.0 32.75,47.0 29.3,47.0 29.25,58.0 23.8,58.0 23.75,47.0 21.2,47.0 21.15,58.0 14.5,58.0 14.45,47.0 11.8,47.0 11.75,58.0 10.4,58.0" fill="rgb(113,71,219)" stroke-linejoin="round"/>
        <path stroke="rgb(90,57,175)" stroke-linejoin="round" stroke-width="1" d="M11.75 26.0 L 10.4 26.0, 10.4 58.0, 11.75 58.0" fill="none"/>
        <path stroke="rgb(90,57,175)" stroke-linejoin="round" stroke-width="1" d="M14.5 26.0 L 21.15 26.0" fill="none"/>
        <path stroke="rgb(90,57,175)" stroke-linejoin="round" stroke-width="1" d="M14.5 58.0 L 21.15 58.0" fill="none"/>
        <path stroke="rgb(90,57,175)" stroke-linejoin="round" stroke-width="1" d="M23.8 26.0 L 29.25 26.0" fill="none"/>
        <path stroke="rgb(90,57,175)" stroke-linejoin="round" stroke-width="1" d="M23.8 58.0 L 29.25 58.0" fill="none"/>
        <path stroke="rgb(90,57,175)" stroke-linejoin="round" stroke-width="1" d="M32.8 26.0 L 47.55 26.0, 47.55 58.0, 32.8 58.0" fill="none"/>
      </g>
    </g>
  </g>
</svg>
