<svg xmlns="http://www.w3.org/2000/svg" version="1.1" baseProfile="full" width="1162" height="84">
  <g>
    <title>BGC0001360.1</title>
    <line x1="2" y1="42" x2="1160" y2="42" stroke="#464646" stroke-width="3"/>
    <g>
      <title>BGC0001360.1~L0+CDS1</title>
      <polygon points="2.0,62.0 2.0,22.0 11.6,22.0 11.6,62.0" stroke-width="2" class="exon" fill="#ffffff" stroke="#0a0a0a"/>
      <polygon points="14.3,62.0 14.3,22.0 20.95,22.0 20.95,62.0" stroke-width="2" class="exon" fill="#ffffff" stroke="#0a0a0a"/>
      <polygon points="23.8,62.0 23.8,22.0 29.25,22.0 29.25,62.0" stroke-width="2" class="exon" fill="#ffffff" stroke="#0a0a0a"/>
      <polygon points="32.55,62.0 32.55,22.0 35.95,22.0 35.95,2.0 75.95,42.0 35.95,82.0 35.95,62.0" stroke-width="2" class="exon" fill="#ffffff" stroke="#0a0a0a"/>
      <polygon points="11.65,62.0 11.65,22.0 14.25,22.0 14.25,62.0" stroke-width="2" class="intron" fill="#dddddd" stroke-dasharray="2,2" stroke="#919191"/>
      <polygon points="21.0,62.0 21.0,22.0 23.75,22.0 23.75,62.0" stroke-width="2" class="intron" fill="#dddddd" stroke-dasharray="2,2" stroke="#919191"/>
      <polygon points="29.3,62.0 29.3,22.0 32.5,22.0 32.5,62.0" stroke-width="2" class="intron" fill="#dddddd" stroke-dasharray="2,2" stroke="#919191"/>
      <g class="domain,Abhydrolase_6">
        <title>Alpha/beta hydrolase family 
PF12697.7 - Abhydrolase_6</title>
        <polygon points="10.1,26.0 11.6,26.0 11.65,37.0 14.25,37.0 14.3,26.0 20.95,26.0 21.0,37.0 23.75,37.0 23.8,26.0 29.25,26.0 29.3,37.0 32.5,37.0 32.55,26.0 54.35,26.0 54.35,58.0 32.55,58.0 32.5,47.0 29.3,47.0 29.25,58.0 23.8,58.0 23.75,47.0 21.0,47.0 20.95,58.0 14.3,58.0 14.25,47.0 11.65,47.0 11.6,58.0 10.1,58.0" fill="rgb(113,71,219)" stroke-linejoin="round"/>
        <path stroke="rgb(90,57,175)" stroke-linejoin="round" stroke-width="1" d="M11.6 26.0 L 10.1 26.0, 10.1 58.0, 11.6 58.0" fill="none"/>
        <path stroke="rgb(90,57,175)" stroke-linejoin="round" stroke-width="1" d="M14.3 26.0 L 20.95 26.0" fill="none"/>
        <path stroke="rgb(90,57,175)" stroke-linejoin="round" stroke-width="1" d="M14.3 58.0 L 20.95 58.0" fill="none"/>
        <path stroke="rgb(90,57,175)" stroke-linejoin="round" stroke-width="1" d="M23.8 26.0 L 29.25 26.0" fill="none"/>
        <path stroke="rgb(90,57,175)" stroke-linejoin="round" stroke-width="1" d="M23.8 58.0 L 29.25 58.0" fill="none"/>
        <path stroke="rgb(90,57,175)" stroke-linejoin="round" stroke-width="1" d="M32.55 26.0 L 54.35 26.0, 54.35 58.0, 32.55 58.0" fill="none"/>
      </g>
    </g>
    <g>
      <title>BGC0001360.1~L0+CDS2</title>
      <polygon points="128.0,62.0 128.0,22.0 136.4,22.0 136.4,62.0" stroke-width="2" class="exon" fill="#ffffff" stroke="#0a0a0a"/>
      <polygon points="139.05,62.0 139.05,22.0 150.5,22.0 150.5,2.0 190.5,42.0 150.5,82.0 150.5,62.0" stroke-width="2" class="exon" fill="#ffffff" stroke="#0a0a0a"/>
      <polygon points="136.45,62.0 136.45,22.0 139.0,22.0 139.0,62.0" stroke-width="2" class="intron" fill="#dddddd" stroke-dasharray="2,2" stroke="#919191"/>
      <g class="domain,Methyltransf_2">
        <title>O-methyltransferase domain 
PF00891.18 - Methyltransf_2</title>
        <polygon points="163.45,26.0 174.5,26.0 187.0,39.0 187.0,45.0 174.5,58.0 163.45,58.0" fill="rgb(50,51,190)" stroke-linejoin="round"/>
        <path stroke="rgb(40,41,152)" stroke-linejoin="round" stroke-width="1" d="M187.0 39.0 L 174.5 26.0, 163.45 26.0, 163.45 58.0, 174.5 58.0, 187.0 45.0 Z" fill="none"/>
      </g>
    </g>
    <g>
      <title>BGC0001360.1~L0+CDS3</title>
      <polygon points="219.55,62.0 219.55,22.0 226.8,22.0 226.8,62.0" stroke-width="2" class="exon" fill="#ffffff" stroke="#0a0a0a"/>
      <polygon points="229.4,62.0 229.4,22.0 244.85,22.0 244.85,62.0" stroke-width="2" class="exon" fill="#ffffff" stroke="#0a0a0a"/>
      <polygon points="248.6,62.0 248.6,22.0 264.95,22.0 264.95,2.0 304.95,42.0 264.95,82.0 264.95,62.0" stroke-width="2" class="exon" fill="#ffffff" stroke="#0a0a0a"/>
      <polygon points="226.85,62.0 226.85,22.0 229.35,22.0 229.35,62.0" stroke-width="2" class="intron" fill="#dddddd" stroke-dasharray="2,2" stroke="#919191"/>
      <polygon points="244.9,62.0 244.9,22.0 248.55,22.0 248.55,62.0" stroke-width="2" class="intron" fill="#dddddd" stroke-dasharray="2,2" stroke="#919191"/>
      <g class="domain,IMPDH">
        <title>IMP dehydrogenase / GMP reductase domain 
PF00478.25 - IMPDH</title>
        <polygon points="224.5,26.0 226.8,26.0 226.85,37.0 229.35,37.0 229.4,26.0 244.85,26.0 244.9,37.0 248.55,37.0 248.6,26.0 288.95,26.0 302.75,40.0 302.75,44.0 288.95,58.0 248.6,58.0 248.55,47.0 244.9,47.0 244.85,58.0 229.4,58.0 229.35,47.0 226.85,47.0 226.8,58.0 224.5,58.0" fill="rgb(225,99,218)" stroke-linejoin="round"/>
        <path stroke="rgb(180,79,174)" stroke-linejoin="round" stroke-width="1" d="M226.8 26.0 L 224.5 26.0, 224.5 58.0, 226.8 58.0" fill="none"/>
        <path stroke="rgb(180,79,174)" stroke-linejoin="round" stroke-width="1" d="M229.4 26.0 L 244.85 26.0" fill="none"/>
        <path stroke="rgb(180,79,174)" stroke-linejoin="round" stroke-width="1" d="M229.4 58.0 L 244.85 58.0" fill="none"/>
        <path stroke="rgb(180,79,174)" stroke-linejoin="round" stroke-width="1" d="M248.6 26.0 L 288.95 26.0, 302.75 40.0, 302.75 44.0, 288.95 58.0, 248.6 58.0" fill="none"/>
      </g>
    </g>
    <g>
      <title>BGC0001360.1~L0+CDS4</title>
      <polygon points="502.4,62.0 502.4,22.0 497.2,22.0 497.2,62.0" stroke-width="2" class="exon" fill="#ffffff" stroke="#0a0a0a"/>
      <polygon points="494.6,62.0 494.6,22.0 492.55,22.0 492.55,62.0" stroke-width="2" class="exon" fill="#ffffff" stroke="#0a0a0a"/>
      <polygon points="467.75,62.0 467.75,22.0 448.6,22.0 448.6,62.0" stroke-width="2" class="exon" fill="#ffffff" stroke="#0a0a0a"/>
      <polygon points="444.9,62.0 444.9,22.0 426.45,22.0 426.45,62.0" stroke-width="2" class="exon" fill="#ffffff" stroke="#0a0a0a"/>
      <polygon points="423.35,62.0 423.35,22.0 412.75,22.0 412.75,62.0" stroke-width="2" class="exon" fill="#ffffff" stroke="#0a0a0a"/>
      <polygon points="409.5,62.0 409.5,22.0 386.95,22.0 386.95,62.0" stroke-width="2" class="exon" fill="#ffffff" stroke="#0a0a0a"/>
      <polygon points="384.25,62.0 384.25,22.0 379.75,22.0 379.75,62.0" stroke-width="2" class="exon" fill="#ffffff" stroke="#0a0a0a"/>
      <polygon points="377.0,62.0 377.0,22.0 367.45,22.0 367.45,62.0" stroke-width="2" class="exon" fill="#ffffff" stroke="#0a0a0a"/>
      <polygon points="364.8,62.0 364.8,22.0 356.9,22.0 356.9,2.0 316.9,42.0 356.9,82.0 356.9,62.0" stroke-width="2" class="exon" fill="#ffffff" stroke="#0a0a0a"/>
      <polygon points="497.15,62.0 497.15,22.0 494.65,22.0 494.65,62.0" stroke-width="2" class="intron" fill="#dddddd" stroke-dasharray="2,2" stroke="#919191"/>
      <polygon points="492.5,62.0 492.5,22.0 467.8,22.0 467.8,62.0" stroke-width="2" class="intron" fill="#dddddd" stroke-dasharray="2,2" stroke="#919191"/>
      <polygon points="448.55,62.0 448.55,22.0 444.95,22.0 444.95,62.0" stroke-width="2" class="intron" fill="#dddddd" stroke-dasharray="2,2" stroke="#919191"/>
      <polygon points="426.4,62.0 426.4,22.0 423.4,22.0 423.4,62.0" stroke-width="2" class="intron" fill="#dddddd" stroke-dasharray="2,2" stroke="#919191"/>
      <polygon points="412.7,62.0 412.7,22.0 409.55,22.0 409.55,62.0" stroke-width="2" class="intron" fill="#dddddd" stroke-dasharray="2,2" stroke="#919191"/>
      <polygon points="386.9,62.0 386.9,22.0 384.3,22.0 384.3,62.0" stroke-width="2" class="intron" fill="#dddddd" stroke-dasharray="2,2" stroke="#919191"/>
      <polygon points="379.7,62.0 379.7,22.0 377.05,22.0 377.05,62.0" stroke-width="2" class="intron" fill="#dddddd" stroke-dasharray="2,2" stroke="#919191"/>
      <polygon points="367.4,62.0 367.4,22.0 364.85,22.0 364.85,62.0" stroke-width="2" class="intron" fill="#dddddd" stroke-dasharray="2,2" stroke="#919191"/>
      <g class="domain,p450">
        <title>Cytochrome P450 
PF00067.22 - p450</title>
        <polygon points="456.8,26.0 448.6,26.0 448.55,37.0 444.95,37.0 444.9,26.0 426.45,26.0 426.4,37.0 423.4,37.0 423.35,26.0 412.75,26.0 412.7,37.0 409.55,37.0 409.5,26.0 386.95,26.0 386.9,37.0 384.3,37.0 384.25,26.0 379.75,26.0 379.7,37.0 377.05,37.0 377.0,26.0 375.55,26.0 375.55,58.0 377.0,58.0 377.05,47.0 379.7,47.0 379.75,58.0 384.25,58.0 384.3,47.0 386.9,47.0 386.95,58.0 409.5,58.0 409.55,47.0 412.7,47.0 412.75,58.0 423.35,58.0 423.4,47.0 426.4,47.0 426.45,58.0 444.9,58.0 444.95,47.0 448.55,47.0 448.6,58.0 456.8,58.0" fill="rgb(85,216,107)" stroke-linejoin="round"/>
        <path stroke="rgb(68,173,86)" stroke-linejoin="round" stroke-width="1" d="M448.6 26.0 L 456.8 26.0, 456.8 58.0, 448.6 58.0" fill="none"/>
        <path stroke="rgb(68,173,86)" stroke-linejoin="round" stroke-width="1" d="M444.9 26.0 L 426.45 26.0" fill="none"/>
        <path stroke="rgb(68,173,86)" stroke-linejoin="round" stroke-width="1" d="M444.9 58.0 L 426.45 58.0" fill="none"/>
        <path stroke="rgb(68,173,86)" stroke-linejoin="round" stroke-width="1" d="M423.35 26.0 L 412.75 26.0" fill="none"/>
        <path stroke="rgb(68,173,86)" stroke-linejoin="round" stroke-width="1" d="M423.35 58.0 L 412.75 58.0" fill="none"/>
        <path stroke="rgb(68,173,86)" stroke-linejoin="round" stroke-width="1" d="M409.5 26.0 L 386.95 26.0" fill="none"/>
        <path stroke="rgb(68,173,86)" stroke-linejoin="round" stroke-width="1" d="M409.5 58.0 L 386.95 58.0" fill="none"/>
        <path stroke="rgb(68,173,86)" stroke-linejoin="round" stroke-width="1" d="M384.25 26.0 L 379.75 26.0" fill="none"/>
        <path stroke="rgb(68,173,86)" stroke-linejoin="round" stroke-width="1" d="M384.25 58.0 L 379.75 58.0" fill="none"/>
        <path stroke="rgb(68,173,86)" stroke-linejoin="round" stroke-width="1" d="M377.0 26.0 L 375.55 26.0, 375.55 58.0, 377.0 58.0" fill="none"/>
      </g>
      <g class="domain,Lactamase_B">
        <title>Metallo-beta-lactamase superfamily 
PF00753.27 - Lactamase_B</title>
        <polygon points="361.7,26.0 349.7,26.0 349.7,58.0 361.7,58.0" fill="rgb(206,198,96)" stroke-linejoin="round"/>
        <path stroke="rgb(165,158,77)" stroke-linejoin="round" stroke-width="1" d="M361.7 26.0 L 349.7 26.0, 349.7 58.0, 361.7 58.0 Z" fill="none"/>
      </g>
    </g>
    <g>
      <title>BGC0001360.1~L0+CDS5</title>
      <polygon points="527.2,82.0 527.2,2.0 537.0,16.99 537.0,67.01" stroke-width="2" class="exon" fill="#ffffff" stroke="#0a0a0a"/>
      <polygon points="542.6,58.44 542.6,25.56 546.45,31.45 546.45,52.55" stroke-width="2" class="exon" fill="#ffffff" stroke="#0a0a0a"/>
      <polygon points="549.45,47.97 549.45,36.03 553.35,42.0" stroke-width="2" class="exon" fill="#ffffff" stroke="#0a0a0a"/>
      <polygon points="537.05,66.93 537.05,17.07 542.55,25.48 542.55,58.52" stroke-width="2" class="intron" fill="#dddddd" stroke-dasharray="2,2" stroke="#919191"/>
      <polygon points="546.5,52.48 546.5,31.52 549.4,35.96 549.4,48.04" stroke-width="2" class="intron" fill="#dddddd" stroke-dasharray="2,2" stroke="#919191"/>
    </g>
    <g>
      <title>BGC0001360.1~L0+CDS6</title>
      <polygon points="587.0,62.0 587.0,22.0 618.8,22.0 618.8,62.0" stroke-width="2" class="exon" fill="#ffffff" stroke="#0a0a0a"/>
      <polygon points="621.8,62.0 621.8,22.0 677.0,22.0 677.0,62.0" stroke-width="2" class="exon" fill="#ffffff" stroke="#0a0a0a"/>
      <polygon points="680.25,62.0 680.25,22.0 699.05,22.0 699.05,62.0" stroke-width="2" class="exon" fill="#ffffff" stroke="#0a0a0a"/>
      <polygon points="703.3,62.0 703.3,22.0 924.55,22.0 924.55,62.0" stroke-width="2" class="exon" fill="#ffffff" stroke="#0a0a0a"/>
      <polygon points="928.1,62.0 928.1,22.0 932.75,22.0 932.75,2.0 972.75,42.0 932.75,82.0 932.75,62.0" stroke-width="2" class="exon" fill="#ffffff" stroke="#0a0a0a"/>
      <polygon points="618.85,62.0 618.85,22.0 621.75,22.0 621.75,62.0" stroke-width="2" class="intron" fill="#dddddd" stroke-dasharray="2,2" stroke="#919191"/>
      <polygon points="677.05,62.0 677.05,22.0 680.2,22.0 680.2,62.0" stroke-width="2" class="intron" fill="#dddddd" stroke-dasharray="2,2" stroke="#919191"/>
      <polygon points="699.1,62.0 699.1,22.0 703.25,22.0 703.25,62.0" stroke-width="2" class="intron" fill="#dddddd" stroke-dasharray="2,2" stroke="#919191"/>
      <polygon points="924.6,62.0 924.6,22.0 928.05,22.0 928.05,62.0" stroke-width="2" class="intron" fill="#dddddd" stroke-dasharray="2,2" stroke="#919191"/>
      <g class="domain,SAT">
        <title>Starter unit:ACP transacylase in aflatoxin biosynthesis [SAT]
PF16073.5 - SAT</title>
        <polygon points="599.6,26.0 618.8,26.0 618.85,37.0 621.75,37.0 621.8,26.0 628.65,26.0 628.65,58.0 621.8,58.0 621.75,47.0 618.85,47.0 618.8,58.0 599.6,58.0" fill="rgb(77,115,183)" stroke-linejoin="round"/>
        <path stroke="rgb(62,92,146)" stroke-linejoin="round" stroke-width="1" d="M618.8 26.0 L 599.6 26.0, 599.6 58.0, 618.8 58.0" fill="none"/>
        <path stroke="rgb(62,92,146)" stroke-linejoin="round" stroke-width="1" d="M621.8 26.0 L 628.65 26.0, 628.65 58.0, 621.8 58.0" fill="none"/>
      </g>
      <g class="domain,ketoacyl-synt">
        <title>Beta-ketoacyl synthase, N-terminal domain [KS]
PF00109.26 - ketoacyl-synt</title>
        <polygon points="650.25,26.0 677.0,26.0 677.05,37.0 680.2,37.0 680.25,26.0 689.9,26.0 689.9,58.0 680.25,58.0 680.2,47.0 677.05,47.0 677.0,58.0 650.25,58.0" fill="rgb(112,116,228)" stroke-linejoin="round"/>
        <path stroke="rgb(90,93,182)" stroke-linejoin="round" stroke-width="1" d="M677.0 26.0 L 650.25 26.0, 650.25 58.0, 677.0 58.0" fill="none"/>
        <path stroke="rgb(90,93,182)" stroke-linejoin="round" stroke-width="1" d="M680.25 26.0 L 689.9 26.0, 689.9 58.0, 680.25 58.0" fill="none"/>
      </g>
      <g class="domain,Ketoacyl-synt_C">
        <title>Beta-ketoacyl synthase, C-terminal domain [KS_C]
PF02801.22 - Ketoacyl-synt_C</title>
        <polygon points="690.95,26.0 699.05,26.0 699.1,37.0 703.25,37.0 703.3,26.0 712.7,26.0 712.7,58.0 703.3,58.0 703.25,47.0 699.1,47.0 699.05,58.0 690.95,58.0" fill="rgb(215,78,102)" stroke-linejoin="round"/>
        <path stroke="rgb(172,62,82)" stroke-linejoin="round" stroke-width="1" d="M699.05 26.0 L 690.95 26.0, 690.95 58.0, 699.05 58.0" fill="none"/>
        <path stroke="rgb(172,62,82)" stroke-linejoin="round" stroke-width="1" d="M703.3 26.0 L 712.7 26.0, 712.7 58.0, 703.3 58.0" fill="none"/>
      </g>
      <g class="domain,Acyl_transf_1">
        <title>Acyl transferase domain [AT]
PF00698.21 - Acyl_transf_1</title>
        <polygon points="744.2,26.0 777.05,26.0 777.05,58.0 744.2,58.0" fill="rgb(59,176,209)" stroke-linejoin="round"/>
        <path stroke="rgb(47,141,167)" stroke-linejoin="round" stroke-width="1" d="M744.2 26.0 L 777.05 26.0, 777.05 58.0, 744.2 58.0 Z" fill="none"/>
      </g>
      <g class="domain,PS-DH">
        <title>Polyketide synthase dehydratase [DH]
PF14765.6 - PS-DH</title>
        <polygon points="797.3,26.0 838.55,26.0 838.55,58.0 797.3,58.0" fill="rgb(173,56,182)" stroke-linejoin="round"/>
        <path stroke="rgb(138,45,146)" stroke-linejoin="round" stroke-width="1" d="M797.3 26.0 L 838.55 26.0, 838.55 58.0, 797.3 58.0 Z" fill="none"/>
      </g>
      <g class="domain,PP-binding">
        <title>Phosphopantetheine attachment site [T/ACP]
PF00550.25 - PP-binding</title>
        <polygon points="845.45,26.0 855.35,26.0 855.35,58.0 845.45,58.0" fill="rgb(103,191,88)" stroke-linejoin="round"/>
        <path stroke="rgb(82,153,70)" stroke-linejoin="round" stroke-width="1" d="M845.45 26.0 L 855.35 26.0, 855.35 58.0, 845.45 58.0 Z" fill="none"/>
      </g>
      <g class="domain,HTH_51">
        <title>Helix-turn-helix domain 
PF18558.1 - HTH_51</title>
        <polygon points="863.6,26.0 875.0,26.0 875.0,58.0 863.6,58.0" fill="rgb(195,163,57)" stroke-linejoin="round"/>
        <path stroke="rgb(156,130,46)" stroke-linejoin="round" stroke-width="1" d="M863.6 26.0 L 875.0 26.0, 875.0 58.0, 863.6 58.0 Z" fill="none"/>
      </g>
      <g class="domain,Methyltransf_12">
        <title>Methyltransferase domain [CMeT]
PF08242.12 - Methyltransf_12</title>
        <polygon points="890.75,26.0 906.35,26.0 906.35,58.0 890.75,58.0" fill="rgb(187,59,115)" stroke-linejoin="round"/>
        <path stroke="rgb(150,47,92)" stroke-linejoin="round" stroke-width="1" d="M890.75 26.0 L 906.35 26.0, 906.35 58.0, 890.75 58.0 Z" fill="none"/>
      </g>
      <g class="domain,Abhydrolase_3">
        <title>alpha/beta hydrolase fold 
PF07859.13 - Abhydrolase_3</title>
        <polygon points="924.35,26.0 924.55,26.0 924.6,37.0 928.05,37.0 928.1,26.0 945.7,26.0 945.7,58.0 928.1,58.0 928.05,47.0 924.6,47.0 924.55,58.0 924.35,58.0" fill="rgb(183,51,179)" stroke-linejoin="round"/>
        <path stroke="rgb(146,41,143)" stroke-linejoin="round" stroke-width="1" d="M924.55 26.0 L 924.35 26.0, 924.35 58.0, 924.55 58.0" fill="none"/>
        <path stroke="rgb(146,41,143)" stroke-linejoin="round" stroke-width="1" d="M928.1 26.0 L 945.7 26.0, 945.7 58.0, 928.1 58.0" fill="none"/>
      </g>
    </g>
    <g>
      <title>BGC0001360.1~L0+CDS7</title>
      <polygon points="1051.5,62.0 1051.5,22.0 1044.05,22.0 1044.05,2.0 1036.65,9.4 1036.65,74.6 1044.05,82.0 1044.05,62.0" stroke-width="2" class="exon" fill="#ffffff" stroke="#0a0a0a"/>
      <polygon points="1034.05,72.0 1034.05,12.0 1004.05,42.0" stroke-width="2" class="exon" fill="#ffffff" stroke="#0a0a0a"/>
      <polygon points="1036.6,74.55 1036.6,9.45 1034.1,11.95 1034.1,72.05" stroke-width="2" class="intron" fill="#dddddd" stroke-dasharray="2,2" stroke="#919191"/>
      <g class="domain,DUF2236">
        <title>Uncharacterized protein conserved in bacteria (DUF2236) 
PF09995.9 - DUF2236</title>
        <polygon points="1038.9,26.0 1036.65,26.0 1036.6,37.0 1034.1,37.0 1034.05,26.0 1020.05,26.0 1005.0,42.0 1005.0,42.0 1020.05,58.0 1034.05,58.0 1034.1,47.0 1036.6,47.0 1036.65,58.0 1038.9,58.0" fill="rgb(194,179,92)" stroke-linejoin="round"/>
        <path stroke="rgb(155,143,74)" stroke-linejoin="round" stroke-width="1" d="M1036.65 26.0 L 1038.9 26.0, 1038.9 58.0, 1036.65 58.0" fill="none"/>
        <path stroke="rgb(155,143,74)" stroke-linejoin="round" stroke-width="1" d="M1034.05 26.0 L 1020.05 26.0, 1005.0 42.0, 1005.0 42.0, 1020.05 58.0, 1034.05 58.0" fill="none"/>
      </g>
    </g>
    <g>
      <title>BGC0001360.1~L0+CDS8</title>
      <polygon points="1103.55,62.0 1103.55,22.0 1108.85,22.0 1108.85,62.0" stroke-width="2" class="exon" fill="#ffffff" stroke="#0a0a0a"/>
      <polygon points="1112.3,62.0 1112.3,22.0 1119.85,22.0 1119.85,2.0 1127.05,9.2 1127.05,74.8 1119.85,82.0 1119.85,62.0" stroke-width="2" class="exon" fill="#ffffff" stroke="#0a0a0a"/>
      <polygon points="1131.0,70.85 1131.0,13.15 1159.85,42.0" stroke-width="2" class="exon" fill="#ffffff" stroke="#0a0a0a"/>
      <polygon points="1108.9,62.0 1108.9,22.0 1112.25,22.0 1112.25,62.0" stroke-width="2" class="intron" fill="#dddddd" stroke-dasharray="2,2" stroke="#919191"/>
      <polygon points="1127.1,74.75 1127.1,9.25 1130.95,13.1 1130.95,70.9" stroke-width="2" class="intron" fill="#dddddd" stroke-dasharray="2,2" stroke="#919191"/>
      <g class="domain,UbiA">
        <title>UbiA prenyltransferase family 
PF01040.18 - UbiA</title>
        <polygon points="1108.65,26.0 1108.85,26.0 1108.9,37.0 1112.25,37.0 1112.3,26.0 1127.05,26.0 1127.1,37.0 1130.95,37.0 1131.0,26.0 1143.85,26.0 1154.5,37.0 1154.5,47.0 1143.85,58.0 1131.0,58.0 1130.95,47.0 1127.1,47.0 1127.05,58.0 1112.3,58.0 1112.25,47.0 1108.9,47.0 1108.85,58.0 1108.65,58.0" fill="rgb(189,57,100)" stroke-linejoin="round"/>
        <path stroke="rgb(151,46,80)" stroke-linejoin="round" stroke-width="1" d="M1108.85 26.0 L 1108.65 26.0, 1108.65 58.0, 1108.85 58.0" fill="none"/>
        <path stroke="rgb(151,46,80)" stroke-linejoin="round" stroke-width="1" d="M1112.3 26.0 L 1127.05 26.0" fill="none"/>
        <path stroke="rgb(151,46,80)" stroke-linejoin="round" stroke-width="1" d="M1112.3 58.0 L 1127.05 58.0" fill="none"/>
        <path stroke="rgb(151,46,80)" stroke-linejoin="round" stroke-width="1" d="M1131.0 26.0 L 1143.85 26.0, 1154.5 37.0, 1154.5 47.0, 1143.85 58.0, 1131.0 58.0" fill="none"/>
      </g>
    </g>
  </g>
</svg>
