<svg xmlns="http://www.w3.org/2000/svg" version="1.1" baseProfile="full" width="747" height="84">
  <g>
    <title>BGC0001274.1</title>
    <line x1="2" y1="42" x2="102" y2="42" stroke="#464646" stroke-width="3"/>
    <g>
      <title>ADT71703.1 [BGC0001274.1~L0+CDS1]</title>
      <polygon points="25.6,62.0 25.6,22.0 50.55,22.0 50.55,2.0 90.55,42.0 50.55,82.0 50.55,62.0" stroke-width="2" class="exon" fill="#ffffff" stroke="#0a0a0a"/>
    </g>
    <g>
      <path stroke="#464646" stroke-width="3" d="M102 42 L 117 42"/>
      <path stroke="#464646" stroke-width="3" d="M127 42 L 142 42"/>
      <path stroke="#464646" stroke-width="3" d="M112 52 L 122 32"/>
      <path stroke="#464646" stroke-width="3" d="M122 52 L 132 32"/>
    </g>
    <line x1="142" y1="42" x2="337" y2="42" stroke="#464646" stroke-width="3"/>
    <g>
      <title>AET14838.1 [BGC0001274.1~L1+CDS1]</title>
      <polygon points="142.5,62.0 142.5,22.0 297.5,22.0 297.5,2.0 337.5,42.0 297.5,82.0 297.5,62.0" stroke-width="2" class="exon" fill="#ffffff" stroke="#0a0a0a"/>
    </g>
    <g>
      <path stroke="#464646" stroke-width="3" d="M337 42 L 352 42"/>
      <path stroke="#464646" stroke-width="3" d="M362 42 L 377 42"/>
      <path stroke="#464646" stroke-width="3" d="M347 52 L 357 32"/>
      <path stroke="#464646" stroke-width="3" d="M357 52 L 367 32"/>
    </g>
    <line x1="377" y1="42" x2="424" y2="42" stroke="#464646" stroke-width="3"/>
    <g>
      <title>AEK28753.1 [BGC0001274.1~L2+CDS1]</title>
      <polygon points="379.6,82.0 379.6,2.0 418.6,42.0" stroke-width="2" class="exon" fill="#ffffff" stroke="#0a0a0a"/>
    </g>
    <g>
      <path stroke="#464646" stroke-width="3" d="M424 42 L 439 42"/>
      <path stroke="#464646" stroke-width="3" d="M449 42 L 464 42"/>
      <path stroke="#464646" stroke-width="3" d="M434 52 L 444 32"/>
      <path stroke="#464646" stroke-width="3" d="M444 52 L 454 32"/>
    </g>
    <line x1="464" y1="42" x2="553" y2="42" stroke="#464646" stroke-width="3"/>
    <g>
      <title>ADT71702.1 [BGC0001274.1~L3+CDS1]</title>
      <polygon points="475.75,62.0 475.75,22.0 505.35,22.0 505.35,2.0 545.35,42.0 505.35,82.0 505.35,62.0" stroke-width="2" class="exon" fill="#ffffff" stroke="#0a0a0a"/>
    </g>
    <g>
      <path stroke="#464646" stroke-width="3" d="M553 42 L 568 42"/>
      <path stroke="#464646" stroke-width="3" d="M578 42 L 593 42"/>
      <path stroke="#464646" stroke-width="3" d="M563 52 L 573 32"/>
      <path stroke="#464646" stroke-width="3" d="M573 52 L 583 32"/>
    </g>
    <line x1="593" y1="42" x2="745" y2="42" stroke="#464646" stroke-width="3"/>
    <g>
      <title>ACD75398.1 [BGC0001274.1~L4+CDS1]</title>
      <polygon points="605.65,62.0 605.65,22.0 646.5,22.0 646.5,2.0 686.5,42.0 646.5,82.0 646.5,62.0" stroke-width="2" class="exon" fill="#ffffff" stroke="#0a0a0a"/>
    </g>
    <g>
      <title>ACD75399.1 [BGC0001274.1~L4+CDS2]</title>
      <polygon points="710.9,82.0 710.9,2.0 733.1,42.0" stroke-width="2" class="exon" fill="#ffffff" stroke="#0a0a0a"/>
    </g>
  </g>
</svg>
