<svg xmlns="http://www.w3.org/2000/svg" version="1.1" baseProfile="full" width="1780" height="84">
  <g>
    <title>Cladofulvin_Final</title>
    <line x1="2" y1="42" x2="1778" y2="42" stroke="#464646" stroke-width="3"/>
    <g>
      <title>184391 [Cladofulvin_Final~L0+CDS1]</title>
      <polygon points="325.6,62.0 325.6,22.0 325.4,22.0 325.4,2.0 285.4,42.0 325.4,82.0 325.4,62.0" stroke-width="2" class="exon" fill="#e8e398" stroke="#0a0a0a"/>
    </g>
    <g>
      <title>184392 [Cladofulvin_Final~L0+CDS2]</title>
      <polygon points="345.85,82.0 345.85,2.0 347.7,4.47 347.7,79.53" stroke-width="2" class="exon" fill="#84a5e7" stroke="#0a0a0a"/>
      <polygon points="350.25,76.13 350.25,7.87 355.15,14.4 355.15,69.6" stroke-width="2" class="exon" fill="#84a5e7" stroke="#0a0a0a"/>
      <polygon points="358.15,65.6 358.15,18.4 375.85,42.0" stroke-width="2" class="exon" fill="#84a5e7" stroke="#0a0a0a"/>
      <polygon points="347.75,79.47 347.75,4.53 350.2,7.8 350.2,76.2" stroke-width="2" class="intron" fill="#dddddd" stroke-dasharray="2,2" stroke="#919191"/>
      <polygon points="355.2,69.53 355.2,14.47 358.1,18.33 358.1,65.67" stroke-width="2" class="intron" fill="#dddddd" stroke-dasharray="2,2" stroke="#919191"/>
    </g>
    <g>
      <title>184393 [Cladofulvin_Final~L0+CDS3]</title>
      <polygon points="496.65,62.0 496.65,22.0 489.15,22.0 489.15,62.0" stroke-width="2" class="exon" fill="#a8eb92" stroke="#0a0a0a"/>
      <polygon points="486.45,62.0 486.45,22.0 472.15,22.0 472.15,2.0 432.15,42.0 472.15,82.0 472.15,62.0" stroke-width="2" class="exon" fill="#a8eb92" stroke="#0a0a0a"/>
      <polygon points="489.1,62.0 489.1,22.0 486.5,22.0 486.5,62.0" stroke-width="2" class="intron" fill="#dddddd" stroke-dasharray="2,2" stroke="#919191"/>
    </g>
    <g>
      <title>184394 [Cladofulvin_Final~L0+CDS4]</title>
      <polygon points="780.75,62.0 780.75,22.0 807.8,22.0 807.8,2.0 847.8,42.0 807.8,82.0 807.8,62.0" stroke-width="2" class="exon" fill="#99d1e7" stroke="#0a0a0a"/>
    </g>
    <g>
      <title>184395 [Cladofulvin_Final~L0+CDS5]</title>
      <polygon points="1135.9,62.0 1135.9,22.0 1119.0,22.0 1119.0,62.0" stroke-width="2" class="exon" fill="#eae49f" stroke="#0a0a0a"/>
      <polygon points="1116.3,62.0 1116.3,22.0 1046.2,22.0 1046.2,62.0" stroke-width="2" class="exon" fill="#eae49f" stroke="#0a0a0a"/>
      <polygon points="1043.95,62.0 1043.95,22.0 1024.4,22.0 1024.4,62.0" stroke-width="2" class="exon" fill="#eae49f" stroke="#0a0a0a"/>
      <polygon points="1022.0,62.0 1022.0,22.0 899.9,22.0 899.9,2.0 859.9,42.0 899.9,82.0 899.9,62.0" stroke-width="2" class="exon" fill="#eae49f" stroke="#0a0a0a"/>
      <polygon points="1118.95,62.0 1118.95,22.0 1116.35,22.0 1116.35,62.0" stroke-width="2" class="intron" fill="#dddddd" stroke-dasharray="2,2" stroke="#919191"/>
      <polygon points="1046.15,62.0 1046.15,22.0 1044.0,22.0 1044.0,62.0" stroke-width="2" class="intron" fill="#dddddd" stroke-dasharray="2,2" stroke="#919191"/>
      <polygon points="1024.35,62.0 1024.35,22.0 1022.05,22.0 1022.05,62.0" stroke-width="2" class="intron" fill="#dddddd" stroke-dasharray="2,2" stroke="#919191"/>
    </g>
    <g>
      <title>184396 [Cladofulvin_Final~L0+CDS6]</title>
      <polygon points="1162.25,62.0 1162.25,22.0 1170.2,22.0 1170.2,62.0" stroke-width="2" class="exon" fill="#e6cf73" stroke="#0a0a0a"/>
      <polygon points="1175.0,62.0 1175.0,22.0 1177.15,22.0 1177.15,2.0 1217.15,42.0 1177.15,82.0 1177.15,62.0" stroke-width="2" class="exon" fill="#e6cf73" stroke="#0a0a0a"/>
      <polygon points="1170.25,62.0 1170.25,22.0 1174.95,22.0 1174.95,62.0" stroke-width="2" class="intron" fill="#dddddd" stroke-dasharray="2,2" stroke="#919191"/>
    </g>
    <g>
      <title>184397 [Cladofulvin_Final~L0+CDS7]</title>
      <polygon points="1233.6,62.0 1233.6,22.0 1234.25,22.0 1234.25,2.0 1274.25,42.0 1234.25,82.0 1234.25,62.0" stroke-width="2" class="exon" fill="#e77b80" stroke="#0a0a0a"/>
    </g>
    <g>
      <title>184398 [Cladofulvin_Final~L0+CDS8]</title>
      <polygon points="1298.3,62.0 1298.3,22.0 1311.0,22.0 1311.0,62.0" stroke-width="2" class="exon" fill="#aaef96" stroke="#0a0a0a"/>
      <polygon points="1313.45,62.0 1313.45,22.0 1344.2,22.0 1344.2,2.0 1369.95,27.75 1369.95,56.25 1344.2,82.0 1344.2,62.0" stroke-width="2" class="exon" fill="#aaef96" stroke="#0a0a0a"/>
      <polygon points="1372.55,53.65 1372.55,30.35 1384.2,42.0" stroke-width="2" class="exon" fill="#aaef96" stroke="#0a0a0a"/>
      <polygon points="1311.05,62.0 1311.05,22.0 1313.4,22.0 1313.4,62.0" stroke-width="2" class="intron" fill="#dddddd" stroke-dasharray="2,2" stroke="#919191"/>
      <polygon points="1370.0,56.2 1370.0,27.8 1372.5,30.3 1372.5,53.7" stroke-width="2" class="intron" fill="#dddddd" stroke-dasharray="2,2" stroke="#919191"/>
    </g>
    <g>
      <title>184399 [Cladofulvin_Final~L0+CDS9]</title>
      <polygon points="1449.7,82.0 1449.7,2.0 1464.05,17.7 1464.05,66.3" stroke-width="2" class="exon" fill="#96f1dd" stroke="#0a0a0a"/>
      <polygon points="1467.9,62.08 1467.9,21.92 1486.25,42.0" stroke-width="2" class="exon" fill="#96f1dd" stroke="#0a0a0a"/>
      <polygon points="1464.1,66.24 1464.1,17.76 1467.85,21.86 1467.85,62.14" stroke-width="2" class="intron" fill="#dddddd" stroke-dasharray="2,2" stroke="#919191"/>
    </g>
    <g>
      <title>184400 [Cladofulvin_Final~L0+CDS10]</title>
      <polygon points="1525.7,82.0 1525.7,2.0 1526.45,10.33 1526.45,73.67" stroke-width="2" class="exon" fill="#88ede1" stroke="#0a0a0a"/>
      <polygon points="1528.85,47.0 1528.85,37.0 1529.3,42.0" stroke-width="2" class="exon" fill="#88ede1" stroke="#0a0a0a"/>
      <polygon points="1526.5,73.11 1526.5,10.89 1528.8,36.44 1528.8,47.56" stroke-width="2" class="intron" fill="#dddddd" stroke-dasharray="2,2" stroke="#919191"/>
    </g>
    <g>
      <title>184401 [Cladofulvin_Final~L0+CDS11]</title>
      <polygon points="1660.7,62.0 1660.7,22.0 1654.95,22.0 1654.95,2.0 1614.95,42.0 1654.95,82.0 1654.95,62.0" stroke-width="2" class="exon" fill="#f1c99f" stroke="#0a0a0a"/>
    </g>
  </g>
</svg>
