<svg xmlns="http://www.w3.org/2000/svg" version="1.1" baseProfile="full" width="1780" height="84">
  <g>
    <title>Cladofulvin_Final</title>
    <line x1="2" y1="42" x2="1778" y2="42" stroke="#464646" stroke-width="3"/>
    <g>
      <title>184391 [Cladofulvin_Final~L0+CDS1]</title>
      <polygon points="1454.75,62.0 1454.75,22.0 1454.95,22.0 1454.95,2.0 1494.95,42.0 1454.95,82.0 1454.95,62.0" stroke-width="2" class="exon" fill="#87cae8" stroke="#0a0a0a"/>
    </g>
    <g>
      <title>184392 [Cladofulvin_Final~L0+CDS2]</title>
      <polygon points="1434.5,82.0 1434.5,2.0 1432.65,4.47 1432.65,79.53" stroke-width="2" class="exon" fill="#ebd1a1" stroke="#0a0a0a"/>
      <polygon points="1430.1,76.13 1430.1,7.87 1425.2,14.4 1425.2,69.6" stroke-width="2" class="exon" fill="#ebd1a1" stroke="#0a0a0a"/>
      <polygon points="1422.2,65.6 1422.2,18.4 1404.5,42.0" stroke-width="2" class="exon" fill="#ebd1a1" stroke="#0a0a0a"/>
      <polygon points="1432.6,79.47 1432.6,4.53 1430.15,7.8 1430.15,76.2" stroke-width="2" class="intron" fill="#dddddd" stroke-dasharray="2,2" stroke="#919191"/>
      <polygon points="1425.15,69.53 1425.15,14.47 1422.25,18.33 1422.25,65.67" stroke-width="2" class="intron" fill="#dddddd" stroke-dasharray="2,2" stroke="#919191"/>
    </g>
    <g>
      <title>184393 [Cladofulvin_Final~L0+CDS3]</title>
      <polygon points="1283.7,62.0 1283.7,22.0 1291.2,22.0 1291.2,62.0" stroke-width="2" class="exon" fill="#f085e9" stroke="#0a0a0a"/>
      <polygon points="1293.9,62.0 1293.9,22.0 1308.2,22.0 1308.2,2.0 1348.2,42.0 1308.2,82.0 1308.2,62.0" stroke-width="2" class="exon" fill="#f085e9" stroke="#0a0a0a"/>
      <polygon points="1291.25,62.0 1291.25,22.0 1293.85,22.0 1293.85,62.0" stroke-width="2" class="intron" fill="#dddddd" stroke-dasharray="2,2" stroke="#919191"/>
    </g>
    <g>
      <title>184394 [Cladofulvin_Final~L0+CDS4]</title>
      <polygon points="999.6,62.0 999.6,22.0 972.55,22.0 972.55,2.0 932.55,42.0 972.55,82.0 972.55,62.0" stroke-width="2" class="exon" fill="#bce78c" stroke="#0a0a0a"/>
    </g>
    <g>
      <title>184395 [Cladofulvin_Final~L0+CDS5]</title>
      <polygon points="644.45,62.0 644.45,22.0 661.35,22.0 661.35,62.0" stroke-width="2" class="exon" fill="#caec7a" stroke="#0a0a0a"/>
      <polygon points="664.05,62.0 664.05,22.0 734.15,22.0 734.15,62.0" stroke-width="2" class="exon" fill="#caec7a" stroke="#0a0a0a"/>
      <polygon points="736.4,62.0 736.4,22.0 755.95,22.0 755.95,62.0" stroke-width="2" class="exon" fill="#caec7a" stroke="#0a0a0a"/>
      <polygon points="758.35,62.0 758.35,22.0 880.45,22.0 880.45,2.0 920.45,42.0 880.45,82.0 880.45,62.0" stroke-width="2" class="exon" fill="#caec7a" stroke="#0a0a0a"/>
      <polygon points="661.4,62.0 661.4,22.0 664.0,22.0 664.0,62.0" stroke-width="2" class="intron" fill="#dddddd" stroke-dasharray="2,2" stroke="#919191"/>
      <polygon points="734.2,62.0 734.2,22.0 736.35,22.0 736.35,62.0" stroke-width="2" class="intron" fill="#dddddd" stroke-dasharray="2,2" stroke="#919191"/>
      <polygon points="756.0,62.0 756.0,22.0 758.3,22.0 758.3,62.0" stroke-width="2" class="intron" fill="#dddddd" stroke-dasharray="2,2" stroke="#919191"/>
    </g>
    <g>
      <title>184396 [Cladofulvin_Final~L0+CDS6]</title>
      <polygon points="618.1,62.0 618.1,22.0 610.15,22.0 610.15,62.0" stroke-width="2" class="exon" fill="#7fe7d3" stroke="#0a0a0a"/>
      <polygon points="605.35,62.0 605.35,22.0 603.2,22.0 603.2,2.0 563.2,42.0 603.2,82.0 603.2,62.0" stroke-width="2" class="exon" fill="#7fe7d3" stroke="#0a0a0a"/>
      <polygon points="610.1,62.0 610.1,22.0 605.4,22.0 605.4,62.0" stroke-width="2" class="intron" fill="#dddddd" stroke-dasharray="2,2" stroke="#919191"/>
    </g>
    <g>
      <title>184397 [Cladofulvin_Final~L0+CDS7]</title>
      <polygon points="546.75,62.0 546.75,22.0 546.1,22.0 546.1,2.0 506.1,42.0 546.1,82.0 546.1,62.0" stroke-width="2" class="exon" fill="#b3e68a" stroke="#0a0a0a"/>
    </g>
    <g>
      <title>184398 [Cladofulvin_Final~L0+CDS8]</title>
      <polygon points="482.05,62.0 482.05,22.0 469.35,22.0 469.35,62.0" stroke-width="2" class="exon" fill="#eb7cbf" stroke="#0a0a0a"/>
      <polygon points="466.9,62.0 466.9,22.0 436.15,22.0 436.15,2.0 410.4,27.75 410.4,56.25 436.15,82.0 436.15,62.0" stroke-width="2" class="exon" fill="#eb7cbf" stroke="#0a0a0a"/>
      <polygon points="407.8,53.65 407.8,30.35 396.15,42.0" stroke-width="2" class="exon" fill="#eb7cbf" stroke="#0a0a0a"/>
      <polygon points="469.3,62.0 469.3,22.0 466.95,22.0 466.95,62.0" stroke-width="2" class="intron" fill="#dddddd" stroke-dasharray="2,2" stroke="#919191"/>
      <polygon points="410.35,56.2 410.35,27.8 407.85,30.3 407.85,53.7" stroke-width="2" class="intron" fill="#dddddd" stroke-dasharray="2,2" stroke="#919191"/>
    </g>
    <g>
      <title>184399 [Cladofulvin_Final~L0+CDS9]</title>
      <polygon points="330.65,82.0 330.65,2.0 316.3,17.7 316.3,66.3" stroke-width="2" class="exon" fill="#e699b0" stroke="#0a0a0a"/>
      <polygon points="312.45,62.08 312.45,21.92 294.1,42.0" stroke-width="2" class="exon" fill="#e699b0" stroke="#0a0a0a"/>
      <polygon points="316.25,66.24 316.25,17.76 312.5,21.86 312.5,62.14" stroke-width="2" class="intron" fill="#dddddd" stroke-dasharray="2,2" stroke="#919191"/>
    </g>
    <g>
      <title>184400 [Cladofulvin_Final~L0+CDS10]</title>
      <polygon points="254.65,82.0 254.65,2.0 253.9,10.33 253.9,73.67" stroke-width="2" class="exon" fill="#e68fa4" stroke="#0a0a0a"/>
      <polygon points="251.5,47.0 251.5,37.0 251.05,42.0" stroke-width="2" class="exon" fill="#e68fa4" stroke="#0a0a0a"/>
      <polygon points="253.85,73.11 253.85,10.89 251.55,36.44 251.55,47.56" stroke-width="2" class="intron" fill="#dddddd" stroke-dasharray="2,2" stroke="#919191"/>
    </g>
    <g>
      <title>184401 [Cladofulvin_Final~L0+CDS11]</title>
      <polygon points="119.65,62.0 119.65,22.0 125.4,22.0 125.4,2.0 165.4,42.0 125.4,82.0 125.4,62.0" stroke-width="2" class="exon" fill="#96bef0" stroke="#0a0a0a"/>
    </g>
  </g>
</svg>
